SplineFontDB: 3.0
FontName: FdSymbolA-Regular
FullName: FdSymbolA-Regular
FamilyName: FdSymbolA
Weight: Regular
Copyright: Copyright (c) 2012, Michael Ummels. This Font Software is licensed under the SIL Open Font License, Version 1.1.
Version: 1.008
ItalicAngle: 0
UnderlinePosition: -100
UnderlineWidth: 50
Ascent: 800
Descent: 200
InvalidEm: 0
LayerCount: 2
Layer: 0 0 "Back" 1
Layer: 1 0 "Fore" 0
UniqueID: 4234683
OS2Version: 0
OS2_WeightWidthSlopeOnly: 0
OS2_UseTypoMetrics: 0
CreationTime: 1431873197
ModificationTime: 1431873197
OS2TypoAscent: 0
OS2TypoAOffset: 1
OS2TypoDescent: 0
OS2TypoDOffset: 1
OS2TypoLinegap: 0
OS2WinAscent: 0
OS2WinAOffset: 1
OS2WinDescent: 0
OS2WinDOffset: 1
HheadAscent: 0
HheadAOffset: 1
HheadDescent: 0
HheadDOffset: 1
OS2Vendor: 'PfEd'
DEI: 91125
Encoding: Custom
UnicodeInterp: none
NameList: AGL For New Fonts
DisplaySize: -48
AntiAlias: 1
FitToEm: 0
BeginPrivate: 2
BlueValues 31 [-10 0 546 556 707 717 754 764]
OtherBlues 11 [-230 -220]
EndPrivate
BeginChars: 256 204

StartChar: dotmath
Encoding: 0 8901 0
Width: 348
Flags: W
HStem: 191 168<136.513 211.487>
VStem: 90 168<237.513 312.487>
LayerCount: 2
Back
Fore
SplineSet
258 275 m 0
 258 258 239 240 224 225 c 0
 209 210 191 191 174 191 c 0
 157 191 139 210 124 225 c 0
 109 240 90 258 90 275 c 0
 90 292 109 310 124 325 c 0
 139 340 157 359 174 359 c 0
 191 359 209 340 224 325 c 0
 239 310 258 292 258 275 c 0
EndSplineSet
EndChar

StartChar: sym000
Encoding: 1 -1 1
Width: 708
Flags: W
HStem: 191 168<136.513 211.487 496.669 572.313>
VStem: 90 168<237.513 312.487> 450 168<237.513 312.487>
LayerCount: 2
Back
Fore
SplineSet
258 275 m 0
 258 258 239 240 224 225 c 0
 209 210 191 191 174 191 c 0
 157 191 139 210 124 225 c 0
 109 240 90 258 90 275 c 0
 90 292 109 310 124 325 c 0
 139 340 157 359 174 359 c 0
 191 359 209 340 224 325 c 0
 239 310 258 292 258 275 c 0
618 275 m 0
 618 258 600 240 585 225 c 0
 570 210 551 191 534 191 c 0
 518 191 499 210 484 225 c 0
 469 240 450 258 450 275 c 0
 450 292 469 310 484 325 c 0
 499 340 518 359 534 359 c 0
 551 359 570 340 585 325 c 0
 600 310 618 292 618 275 c 0
EndSplineSet
EndChar

StartChar: uni2236
Encoding: 2 8758 2
Width: 348
Flags: W
HStem: 11 168<136.513 211.487> 371 168<136.513 211.487>
VStem: 90 168<56.6874 132.487 417.513 493.313>
LayerCount: 2
Back
Fore
SplineSet
258 95 m 0
 258 78 239 59 224 44 c 0
 209 29 191 11 174 11 c 0
 157 11 139 29 124 44 c 0
 109 59 90 78 90 95 c 0
 90 112 109 130 124 145 c 0
 139 160 157 179 174 179 c 0
 191 179 209 160 224 145 c 0
 239 130 258 112 258 95 c 0
258 455 m 0
 258 438 239 420 224 405 c 0
 209 390 191 371 174 371 c 0
 157 371 139 390 124 405 c 0
 109 420 90 438 90 455 c 0
 90 472 109 491 124 506 c 0
 139 521 157 539 174 539 c 0
 191 539 209 521 224 506 c 0
 239 491 258 472 258 455 c 0
EndSplineSet
EndChar

StartChar: sym001
Encoding: 3 -1 3
Width: 673
Flags: W
HStem: 64 168<170.687 246.487> 318 168<425.687 501.487>
VStem: 125 168<109.687 185.331> 380 168<364.669 440.313>
LayerCount: 2
Back
Fore
SplineSet
293 148 m 0
 293 131 274 112 259 97 c 0
 244 82 226 64 209 64 c 0
 192 64 173 82 158 97 c 0
 143 112 125 131 125 148 c 0
 125 164 143 183 158 198 c 0
 173 213 192 232 209 232 c 0
 226 232 244 213 259 198 c 0
 274 183 293 164 293 148 c 0
548 402 m 0
 548 386 529 367 514 352 c 0
 499 337 481 318 464 318 c 0
 447 318 428 337 413 352 c 0
 398 367 380 386 380 402 c 0
 380 419 398 438 413 453 c 0
 428 468 447 486 464 486 c 0
 481 486 499 468 514 453 c 0
 529 438 548 419 548 402 c 0
EndSplineSet
EndChar

StartChar: sym002
Encoding: 4 -1 4
Width: 673
Flags: W
HStem: 64 168<425.687 501.487> 318 168<170.687 246.487>
VStem: 125 168<364.669 440.313> 380 168<109.687 185.331>
LayerCount: 2
Back
Fore
SplineSet
548 148 m 0
 548 131 529 112 514 97 c 0
 499 82 481 64 464 64 c 0
 447 64 428 82 413 97 c 0
 398 112 380 131 380 148 c 0
 380 164 398 183 413 198 c 0
 428 213 447 232 464 232 c 0
 481 232 499 213 514 198 c 0
 529 183 548 164 548 148 c 0
293 402 m 0
 293 386 274 367 259 352 c 0
 244 337 226 318 209 318 c 0
 192 318 173 337 158 352 c 0
 143 367 125 386 125 402 c 0
 125 419 143 438 158 453 c 0
 173 468 192 486 209 486 c 0
 226 486 244 468 259 453 c 0
 274 438 293 419 293 402 c 0
EndSplineSet
EndChar

StartChar: uni22EF
Encoding: 5 8943 5
Width: 1069
Flags: W
HStem: 191 168<136.513 211.487 496.669 572.313 857.513 932.487>
VStem: 90 168<237.513 312.487> 450 168<237.513 312.487> 811 168<237.513 312.487>
LayerCount: 2
Back
Fore
SplineSet
258 275 m 0
 258 258 239 240 224 225 c 0
 209 210 191 191 174 191 c 0
 157 191 139 210 124 225 c 0
 109 240 90 258 90 275 c 0
 90 292 109 310 124 325 c 0
 139 340 157 359 174 359 c 0
 191 359 209 340 224 325 c 0
 239 310 258 292 258 275 c 0
618 275 m 0
 618 258 600 240 585 225 c 0
 570 210 551 191 534 191 c 0
 518 191 499 210 484 225 c 0
 469 240 450 258 450 275 c 0
 450 292 469 310 484 325 c 0
 499 340 518 359 534 359 c 0
 551 359 570 340 585 325 c 0
 600 310 618 292 618 275 c 0
979 275 m 0
 979 258 960 240 945 225 c 0
 930 210 912 191 895 191 c 0
 878 191 860 210 845 225 c 0
 830 240 811 258 811 275 c 0
 811 292 830 310 845 325 c 0
 860 340 878 359 895 359 c 0
 912 359 930 340 945 325 c 0
 960 310 979 292 979 275 c 0
EndSplineSet
EndChar

StartChar: uni22EE
Encoding: 6 8942 6
Width: 348
Flags: W
HStem: -169 168<136.513 211.487> 191 168<136.513 211.487> 551 168<136.513 211.487>
VStem: 90 168<-123.313 -47.6686 237.513 312.487 597.669 673.313>
CounterMasks: 1 e0
LayerCount: 2
Back
Fore
SplineSet
258 -85 m 0
 258 -102 239 -121 224 -136 c 0
 209 -151 191 -169 174 -169 c 0
 157 -169 139 -151 124 -136 c 0
 109 -121 90 -102 90 -85 c 0
 90 -69 109 -50 124 -35 c 0
 139 -20 157 -1 174 -1 c 0
 191 -1 209 -20 224 -35 c 0
 239 -50 258 -69 258 -85 c 0
258 275 m 0
 258 258 239 240 224 225 c 0
 209 210 191 191 174 191 c 0
 157 191 139 210 124 225 c 0
 109 240 90 258 90 275 c 0
 90 292 109 310 124 325 c 0
 139 340 157 359 174 359 c 0
 191 359 209 340 224 325 c 0
 239 310 258 292 258 275 c 0
258 635 m 0
 258 619 239 600 224 585 c 0
 209 570 191 551 174 551 c 0
 157 551 139 570 124 585 c 0
 109 600 90 619 90 635 c 0
 90 652 109 671 124 686 c 0
 139 701 157 719 174 719 c 0
 191 719 209 701 224 686 c 0
 239 671 258 652 258 635 c 0
EndSplineSet
EndChar

StartChar: uni22F0
Encoding: 7 8944 7
Width: 927
Flags: W
HStem: -64 168<170.687 246.487> 191 168<425.687 501.487> 446 168<680.687 756.331>
VStem: 125 168<-17.4868 57.9166> 380 168<237.513 312.487> 635 168<492.083 567.487>
CounterMasks: 1 fc
LayerCount: 2
Back
Fore
SplineSet
293 20 m 0
 293 3 274 -15 259 -30 c 0
 244 -45 226 -64 209 -64 c 0
 192 -64 173 -45 158 -30 c 0
 143 -15 125 3 125 20 c 0
 125 37 143 56 158 70 c 0
 173 85 192 104 209 104 c 0
 226 104 244 85 259 70 c 0
 274 56 293 37 293 20 c 0
548 275 m 0
 548 258 529 240 514 225 c 0
 499 210 481 191 464 191 c 0
 447 191 428 210 413 225 c 0
 398 240 380 258 380 275 c 0
 380 292 398 310 413 325 c 0
 428 340 447 359 464 359 c 0
 481 359 499 340 514 325 c 0
 529 310 548 292 548 275 c 0
803 530 m 0
 803 513 784 494 769 480 c 0
 754 465 735 446 719 446 c 0
 702 446 683 465 668 480 c 0
 653 494 635 513 635 530 c 0
 635 547 653 565 668 580 c 0
 683 595 702 614 719 614 c 0
 735 614 754 595 769 580 c 0
 784 565 803 547 803 530 c 0
EndSplineSet
EndChar

StartChar: uni22F1
Encoding: 8 8945 8
Width: 927
Flags: W
HStem: -64 168<680.687 756.331> 191 168<425.687 501.487> 446 168<170.687 246.487>
VStem: 125 168<492.083 567.487> 380 168<237.513 312.487> 635 168<-17.4868 57.9166>
CounterMasks: 1 fc
LayerCount: 2
Back
Fore
SplineSet
803 20 m 0
 803 3 784 -15 769 -30 c 0
 754 -45 735 -64 719 -64 c 0
 702 -64 683 -45 668 -30 c 0
 653 -15 635 3 635 20 c 0
 635 37 653 56 668 70 c 0
 683 85 702 104 719 104 c 0
 735 104 754 85 769 70 c 0
 784 56 803 37 803 20 c 0
548 275 m 0
 548 258 529 240 514 225 c 0
 499 210 481 191 464 191 c 0
 447 191 428 210 413 225 c 0
 398 240 380 258 380 275 c 0
 380 292 398 310 413 325 c 0
 428 340 447 359 464 359 c 0
 481 359 499 340 514 325 c 0
 529 310 548 292 548 275 c 0
293 530 m 0
 293 513 274 494 259 480 c 0
 244 465 226 446 209 446 c 0
 192 446 173 465 158 480 c 0
 143 494 125 513 125 530 c 0
 125 547 143 565 158 580 c 0
 173 595 192 614 209 614 c 0
 226 614 244 595 259 580 c 0
 274 565 293 547 293 530 c 0
EndSplineSet
EndChar

StartChar: sym003
Encoding: 9 -1 9
Width: 720
Flags: W
HStem: 8 168<163.513 239.313> 191 168<480.687 556.487> 374 168<163.513 239.313>
VStem: 117 168<53.6874 129.331 420.669 496.313> 435 168<237.513 312.487>
CounterMasks: 1 e0
LayerCount: 2
Back
Fore
SplineSet
603 275 m 0
 603 258 584 240 569 225 c 0
 554 210 536 191 519 191 c 0
 502 191 483 210 468 225 c 0
 453 240 435 258 435 275 c 0
 435 292 453 310 468 325 c 0
 483 340 502 359 519 359 c 0
 536 359 554 340 569 325 c 0
 584 310 603 292 603 275 c 0
285 458 m 0
 285 442 267 423 252 408 c 0
 237 393 218 374 201 374 c 0
 184 374 166 393 151 408 c 0
 136 423 117 442 117 458 c 0
 117 475 136 494 151 509 c 0
 166 524 184 542 201 542 c 0
 218 542 237 524 252 509 c 0
 267 494 285 475 285 458 c 0
285 92 m 0
 285 75 267 56 252 41 c 0
 237 26 218 8 201 8 c 0
 184 8 166 26 151 41 c 0
 136 56 117 75 117 92 c 0
 117 108 136 127 151 142 c 0
 166 157 184 176 201 176 c 0
 218 176 237 157 252 142 c 0
 267 127 285 108 285 92 c 0
EndSplineSet
EndChar

StartChar: therefore
Encoding: 10 8756 10
Width: 720
Flags: W
HStem: 32 168<138.687 214.331 505.669 581.313> 350 168<322.513 397.487>
VStem: 93 168<78.5132 154.313> 276 168<395.687 471.487> 459 168<78.5132 154.313>
CounterMasks: 1 38
LayerCount: 2
Back
Fore
SplineSet
444 434 m 0
 444 417 425 398 410 383 c 0
 395 368 377 350 360 350 c 0
 343 350 325 368 310 383 c 0
 295 398 276 417 276 434 c 0
 276 451 295 469 310 484 c 0
 325 499 343 518 360 518 c 0
 377 518 395 499 410 484 c 0
 425 469 444 451 444 434 c 0
261 116 m 0
 261 99 242 81 227 66 c 0
 212 51 193 32 177 32 c 0
 160 32 141 51 126 66 c 0
 111 81 93 99 93 116 c 0
 93 133 111 152 126 167 c 0
 141 182 160 200 177 200 c 0
 193 200 212 182 227 167 c 0
 242 152 261 133 261 116 c 0
627 116 m 0
 627 99 609 81 594 66 c 0
 579 51 560 32 543 32 c 0
 527 32 508 51 493 66 c 0
 478 81 459 99 459 116 c 0
 459 133 478 152 493 167 c 0
 508 182 527 200 543 200 c 0
 560 200 579 182 594 167 c 0
 609 152 627 133 627 116 c 0
EndSplineSet
EndChar

StartChar: sym004
Encoding: 11 -1 11
Width: 720
Flags: W
HStem: 8 168<480.687 556.487> 191 168<163.513 239.313> 374 168<480.687 556.487>
VStem: 117 168<237.513 312.487> 435 168<53.6874 129.331 420.669 496.313>
CounterMasks: 1 e0
LayerCount: 2
Back
Fore
SplineSet
285 275 m 0
 285 258 267 240 252 225 c 0
 237 210 218 191 201 191 c 0
 184 191 166 210 151 225 c 0
 136 240 117 258 117 275 c 0
 117 292 136 310 151 325 c 0
 166 340 184 359 201 359 c 0
 218 359 237 340 252 325 c 0
 267 310 285 292 285 275 c 0
603 92 m 0
 603 75 584 56 569 41 c 0
 554 26 536 8 519 8 c 0
 502 8 483 26 468 41 c 0
 453 56 435 75 435 92 c 0
 435 108 453 127 468 142 c 0
 483 157 502 176 519 176 c 0
 536 176 554 157 569 142 c 0
 584 127 603 108 603 92 c 0
603 458 m 0
 603 442 584 423 569 408 c 0
 554 393 536 374 519 374 c 0
 502 374 483 393 468 408 c 0
 453 423 435 442 435 458 c 0
 435 475 453 494 468 509 c 0
 483 524 502 542 519 542 c 0
 536 542 554 524 569 509 c 0
 584 494 603 475 603 458 c 0
EndSplineSet
EndChar

StartChar: uni2235
Encoding: 12 8757 12
Width: 720
Flags: W
HStem: 32 168<322.513 397.487> 350 168<138.687 214.331 505.669 581.313>
VStem: 93 168<395.687 471.487> 276 168<78.5132 154.313> 459 168<395.687 471.487>
CounterMasks: 1 38
LayerCount: 2
Back
Fore
SplineSet
444 116 m 0
 444 99 425 81 410 66 c 0
 395 51 377 32 360 32 c 0
 343 32 325 51 310 66 c 0
 295 81 276 99 276 116 c 0
 276 133 295 152 310 167 c 0
 325 182 343 200 360 200 c 0
 377 200 395 182 410 167 c 0
 425 152 444 133 444 116 c 0
627 434 m 0
 627 417 609 398 594 383 c 0
 579 368 560 350 543 350 c 0
 527 350 508 368 493 383 c 0
 478 398 459 417 459 434 c 0
 459 451 478 469 493 484 c 0
 508 499 527 518 543 518 c 0
 560 518 579 499 594 484 c 0
 609 469 627 451 627 434 c 0
261 434 m 0
 261 417 242 398 227 383 c 0
 212 368 193 350 177 350 c 0
 160 350 141 368 126 383 c 0
 111 398 93 417 93 434 c 0
 93 451 111 469 126 484 c 0
 141 499 160 518 177 518 c 0
 193 518 212 499 227 484 c 0
 242 469 261 451 261 434 c 0
EndSplineSet
EndChar

StartChar: uni2237
Encoding: 13 8759 13
Width: 720
Flags: W
HStem: 5 168<136.513 211.487 508.513 583.487> 377 168<136.513 211.487 508.513 583.487>
VStem: 90 168<51.5132 126.487 423.513 498.487> 462 168<51.5132 126.487 423.513 498.487>
LayerCount: 2
Back
Fore
SplineSet
630 461 m 0
 630 444 611 426 596 411 c 0
 581 396 563 377 546 377 c 0
 529 377 511 396 496 411 c 0
 481 426 462 444 462 461 c 0
 462 478 481 496 496 511 c 0
 511 526 529 545 546 545 c 0
 563 545 581 526 596 511 c 0
 611 496 630 478 630 461 c 0
258 461 m 0
 258 444 239 426 224 411 c 0
 209 396 191 377 174 377 c 0
 157 377 139 396 124 411 c 0
 109 426 90 444 90 461 c 0
 90 478 109 496 124 511 c 0
 139 526 157 545 174 545 c 0
 191 545 209 526 224 511 c 0
 239 496 258 478 258 461 c 0
258 89 m 0
 258 72 239 54 224 39 c 0
 209 24 191 5 174 5 c 0
 157 5 139 24 124 39 c 0
 109 54 90 72 90 89 c 0
 90 106 109 124 124 139 c 0
 139 154 157 173 174 173 c 0
 191 173 209 154 224 139 c 0
 239 124 258 106 258 89 c 0
630 89 m 0
 630 72 611 54 596 39 c 0
 581 24 563 5 546 5 c 0
 529 5 511 24 496 39 c 0
 481 54 462 72 462 89 c 0
 462 106 481 124 496 139 c 0
 511 154 529 173 546 173 c 0
 563 173 581 154 596 139 c 0
 611 124 630 106 630 89 c 0
EndSplineSet
EndChar

StartChar: minus
Encoding: 14 8722 14
Width: 720
Flags: W
HStem: 238 74<90 630>
LayerCount: 2
Back
Fore
SplineSet
630 312 m 1
 630 238 l 1
 90 238 l 1
 90 312 l 1
 630 312 l 1
EndSplineSet
EndChar

StartChar: uni2215
Encoding: 15 8725 15
Width: 720
Flags: W
HStem: 527 20G<560 600>
LayerCount: 2
Back
Fore
SplineSet
580 547 m 1
 632 495 l 1
 140 3 l 1
 88 55 l 1
 580 547 l 1
EndSplineSet
EndChar

StartChar: uni2216
Encoding: 16 8726 16
Width: 720
Flags: W
HStem: 527 20G<120 160>
LayerCount: 2
Back
Fore
SplineSet
88 495 m 1
 140 547 l 1
 632 55 l 1
 580 3 l 1
 88 495 l 1
EndSplineSet
EndChar

StartChar: plus
Encoding: 17 43 17
Width: 720
Flags: W
HStem: 238 74<90 323 397 630> 525 20G<323 397>
VStem: 323 74<5 238 312 545>
LayerCount: 2
Back
Fore
SplineSet
323 545 m 1
 397 545 l 1
 397 312 l 1
 630 312 l 1
 630 238 l 1
 397 238 l 1
 397 5 l 1
 323 5 l 1
 323 238 l 1
 90 238 l 1
 90 312 l 1
 323 312 l 1
 323 545 l 1
EndSplineSet
EndChar

StartChar: multiply
Encoding: 18 215 18
Width: 720
Flags: W
HStem: 527 20G<120 160 560 600>
LayerCount: 2
Back
Fore
SplineSet
88 495 m 1
 140 547 l 1
 360 327 l 1
 580 547 l 1
 632 495 l 1
 412 275 l 1
 632 55 l 1
 580 3 l 1
 360 223 l 1
 140 3 l 1
 88 55 l 1
 308 275 l 1
 88 495 l 1
EndSplineSet
EndChar

StartChar: uni2238
Encoding: 19 8760 19
Width: 720
Flags: W
HStem: 238 74<90 630> 404 126<326.258 393.742>
VStem: 297 126<433.169 501.83>
LayerCount: 2
Back
Fore
SplineSet
90 238 m 1
 90 312 l 1
 630 312 l 1
 630 238 l 1
 90 238 l 1
423 467 m 0
 423 455 409 441 398 430 c 0
 387 418 373 404 360 404 c 0
 347 404 333 418 322 430 c 0
 311 441 297 455 297 467 c 0
 297 480 311 494 322 505 c 0
 333 517 347 530 360 530 c 0
 373 530 387 517 398 505 c 0
 409 494 423 480 423 467 c 0
EndSplineSet
EndChar

StartChar: uni2A2A
Encoding: 20 10794 20
Width: 720
Flags: W
HStem: 20 126<326.258 393.742> 238 74<90 630>
VStem: 297 126<48.1696 116.831>
LayerCount: 2
Back
Fore
SplineSet
630 312 m 1
 630 238 l 1
 90 238 l 1
 90 312 l 1
 630 312 l 1
423 83 m 0
 423 70 409 56 398 45 c 0
 387 33 373 20 360 20 c 0
 347 20 333 33 322 45 c 0
 311 56 297 70 297 83 c 0
 297 95 311 109 322 120 c 0
 333 132 347 146 360 146 c 0
 373 146 387 132 398 120 c 0
 409 109 423 95 423 83 c 0
EndSplineSet
EndChar

StartChar: divide
Encoding: 21 247 21
Width: 720
Flags: W
HStem: 20 126<326.258 393.742> 238 74<90 630> 404 126<326.258 393.742>
VStem: 297 126<48.1696 116.831 433.169 501.83>
CounterMasks: 1 e0
LayerCount: 2
Back
Fore
SplineSet
630 312 m 1
 630 238 l 1
 90 238 l 1
 90 312 l 1
 630 312 l 1
423 467 m 0
 423 455 409 441 398 430 c 0
 387 418 373 404 360 404 c 0
 347 404 333 418 322 430 c 0
 311 441 297 455 297 467 c 0
 297 480 311 494 322 505 c 0
 333 517 347 530 360 530 c 0
 373 530 387 517 398 505 c 0
 409 494 423 480 423 467 c 0
423 83 m 0
 423 70 409 56 398 45 c 0
 387 33 373 20 360 20 c 0
 347 20 333 33 322 45 c 0
 311 56 297 70 297 83 c 0
 297 95 311 109 322 120 c 0
 333 132 347 146 360 146 c 0
 373 146 387 132 398 120 c 0
 409 109 423 95 423 83 c 0
EndSplineSet
EndChar

StartChar: uni2A2B
Encoding: 22 10795 22
Width: 720
Flags: W
HStem: 20 126<496.258 563.742> 238 74<90 630> 404 126<156.258 223.742>
VStem: 127 126<433.169 501.83> 467 126<48.1696 116.831>
CounterMasks: 1 e0
LayerCount: 2
Back
Fore
SplineSet
630 312 m 1
 630 238 l 1
 90 238 l 1
 90 312 l 1
 630 312 l 1
253 467 m 0
 253 455 239 441 228 430 c 0
 217 418 203 404 190 404 c 0
 177 404 163 418 152 430 c 0
 141 441 127 455 127 467 c 0
 127 480 141 494 152 505 c 0
 163 517 177 530 190 530 c 0
 203 530 217 517 228 505 c 0
 239 494 253 480 253 467 c 0
593 83 m 0
 593 70 579 56 568 45 c 0
 557 33 543 20 530 20 c 0
 517 20 503 33 492 45 c 0
 481 56 467 70 467 83 c 0
 467 95 481 109 492 120 c 0
 503 132 517 146 530 146 c 0
 543 146 557 132 568 120 c 0
 579 109 593 95 593 83 c 0
EndSplineSet
EndChar

StartChar: uni2A2C
Encoding: 23 10796 23
Width: 720
Flags: W
HStem: 20 126<156.258 223.742> 238 74<90 630> 404 126<496.258 563.742>
VStem: 127 126<48.1696 116.831> 467 126<433.169 501.83>
CounterMasks: 1 e0
LayerCount: 2
Back
Fore
SplineSet
630 312 m 1
 630 238 l 1
 90 238 l 1
 90 312 l 1
 630 312 l 1
593 467 m 0
 593 455 579 441 568 430 c 0
 557 418 543 404 530 404 c 0
 517 404 503 418 492 430 c 0
 481 441 467 455 467 467 c 0
 467 480 481 494 492 505 c 0
 503 517 517 530 530 530 c 0
 543 530 557 517 568 505 c 0
 579 494 593 480 593 467 c 0
253 83 m 0
 253 70 239 56 228 45 c 0
 217 33 203 20 190 20 c 0
 177 20 163 33 152 45 c 0
 141 56 127 70 127 83 c 0
 127 95 141 109 152 120 c 0
 163 132 177 146 190 146 c 0
 203 146 217 132 228 120 c 0
 239 109 253 95 253 83 c 0
EndSplineSet
EndChar

StartChar: uni223A
Encoding: 24 8762 24
Width: 720
Flags: W
HStem: 20 126<156.258 223.742 496.258 563.742> 238 74<90 630> 404 126<156.258 223.742 496.258 563.742>
VStem: 127 126<48.1696 116.831 433.169 501.83> 467 126<48.1696 116.831 433.169 501.83>
CounterMasks: 1 e0
LayerCount: 2
Back
Fore
SplineSet
630 312 m 1
 630 238 l 1
 90 238 l 1
 90 312 l 1
 630 312 l 1
253 467 m 0
 253 455 239 441 228 430 c 0
 217 418 203 404 190 404 c 0
 177 404 163 418 152 430 c 0
 141 441 127 455 127 467 c 0
 127 480 141 494 152 505 c 0
 163 517 177 530 190 530 c 0
 203 530 217 517 228 505 c 0
 239 494 253 480 253 467 c 0
593 467 m 0
 593 455 579 441 568 430 c 0
 557 418 543 404 530 404 c 0
 517 404 503 418 492 430 c 0
 481 441 467 455 467 467 c 0
 467 480 481 494 492 505 c 0
 503 517 517 530 530 530 c 0
 543 530 557 517 568 505 c 0
 579 494 593 480 593 467 c 0
253 83 m 0
 253 70 239 56 228 45 c 0
 217 33 203 20 190 20 c 0
 177 20 163 33 152 45 c 0
 141 56 127 70 127 83 c 0
 127 95 141 109 152 120 c 0
 163 132 177 146 190 146 c 0
 203 146 217 132 228 120 c 0
 239 109 253 95 253 83 c 0
593 83 m 0
 593 70 579 56 568 45 c 0
 557 33 543 20 530 20 c 0
 517 20 503 33 492 45 c 0
 481 56 467 70 467 83 c 0
 467 95 481 109 492 120 c 0
 503 132 517 146 530 146 c 0
 543 146 557 132 568 120 c 0
 579 109 593 95 593 83 c 0
EndSplineSet
EndChar

StartChar: plusminus
Encoding: 25 177 25
Width: 720
Flags: W
HStem: -63 74<90 630> 306 74<90 323 397 630>
VStem: 323 74<72 306 380 613>
LayerCount: 2
Back
Fore
SplineSet
323 613 m 1
 397 613 l 1
 397 380 l 1
 630 380 l 1
 630 306 l 1
 397 306 l 1
 397 72 l 1
 323 72 l 1
 323 306 l 1
 90 306 l 1
 90 380 l 1
 323 380 l 1
 323 613 l 1
630 11 m 1
 630 -63 l 1
 90 -63 l 1
 90 11 l 1
 630 11 l 1
EndSplineSet
EndChar

StartChar: uni2213
Encoding: 26 8723 26
Width: 720
Flags: W
HStem: 170 74<90 323 397 630> 539 74<90 630>
VStem: 323 74<-63 170 244 478>
LayerCount: 2
Back
Fore
SplineSet
323 478 m 1
 397 478 l 1
 397 244 l 1
 630 244 l 1
 630 170 l 1
 397 170 l 1
 397 -63 l 1
 323 -63 l 1
 323 170 l 1
 90 170 l 1
 90 244 l 1
 323 244 l 1
 323 478 l 1
630 613 m 1
 630 539 l 1
 90 539 l 1
 90 613 l 1
 630 613 l 1
EndSplineSet
EndChar

StartChar: uni2214
Encoding: 27 8724 27
Width: 720
Flags: W
HStem: 170 74<90 323 397 630> 513 126<326.258 393.742>
VStem: 297 126<541.17 609.831> 323 74<-63 170 244 478>
LayerCount: 2
Back
Fore
SplineSet
323 478 m 1xd0
 397 478 l 1
 397 244 l 1
 630 244 l 1
 630 170 l 1
 397 170 l 1
 397 -63 l 1
 323 -63 l 1
 323 170 l 1
 90 170 l 1
 90 244 l 1
 323 244 l 1
 323 478 l 1xd0
423 576 m 0xe0
 423 563 409 549 398 538 c 0
 387 526 373 513 360 513 c 0
 347 513 333 526 322 538 c 0
 311 549 297 563 297 576 c 0
 297 588 311 602 322 613 c 0
 333 625 347 639 360 639 c 0
 373 639 387 625 398 613 c 0
 409 602 423 588 423 576 c 0xe0
EndSplineSet
EndChar

StartChar: uni2A25
Encoding: 28 10789 28
Width: 720
Flags: W
HStem: -89 126<326.258 393.742> 306 74<90 323 397 630>
VStem: 297 126<-59.8313 8.83044> 323 74<72 306 380 613>
LayerCount: 2
Back
Fore
SplineSet
323 613 m 1xd0
 397 613 l 1
 397 380 l 1
 630 380 l 1
 630 306 l 1
 397 306 l 1
 397 72 l 1
 323 72 l 1
 323 306 l 1
 90 306 l 1
 90 380 l 1
 323 380 l 1
 323 613 l 1xd0
423 -26 m 0xe0
 423 -38 409 -52 398 -63 c 0
 387 -75 373 -89 360 -89 c 0
 347 -89 333 -75 322 -63 c 0
 311 -52 297 -38 297 -26 c 0
 297 -13 311 1 322 12 c 0
 333 24 347 37 360 37 c 0
 373 37 387 24 398 12 c 0
 409 1 423 -13 423 -26 c 0xe0
EndSplineSet
EndChar

StartChar: uni2A30
Encoding: 29 10800 29
Width: 720
Flags: W
HStem: 486 126<326.258 393.742>
VStem: 297 126<514.17 582.831>
LayerCount: 2
Back
Fore
SplineSet
88 427 m 1
 140 480 l 1
 360 260 l 1
 580 480 l 1
 632 427 l 1
 412 208 l 1
 632 -12 l 1
 580 -65 l 1
 360 155 l 1
 140 -65 l 1
 88 -12 l 1
 308 208 l 1
 88 427 l 1
423 549 m 0
 423 536 409 522 398 511 c 0
 387 499 373 486 360 486 c 0
 347 486 333 499 322 511 c 0
 311 522 297 536 297 549 c 0
 297 561 311 575 322 586 c 0
 333 598 347 612 360 612 c 0
 373 612 387 598 398 586 c 0
 409 575 423 561 423 549 c 0
EndSplineSet
EndChar

StartChar: uni2A31
Encoding: 30 10801 30
Width: 720
Flags: W
HStem: -63 74<90 630>
LayerCount: 2
Back
Fore
SplineSet
88 562 m 1
 140 615 l 1
 360 395 l 1
 580 615 l 1
 632 562 l 1
 412 342 l 1
 632 123 l 1
 580 70 l 1
 360 290 l 1
 140 70 l 1
 88 123 l 1
 308 342 l 1
 88 562 l 1
630 11 m 1
 630 -63 l 1
 90 -63 l 1
 90 11 l 1
 630 11 l 1
EndSplineSet
EndChar

StartChar: uni22C7
Encoding: 31 8903 31
Width: 720
Flags: W
HStem: 20 126<326.258 393.742> 238 74<90 271 449 630> 404 126<326.258 393.742> 527 20G<120 160 560 600>
VStem: 297 126<48.1696 116.831 433.169 501.83>
LayerCount: 2
Back
Fore
SplineSet
88 495 m 1xd8
 140 547 l 1
 360 327 l 1
 580 547 l 1
 632 495 l 1
 449 312 l 1
 630 312 l 1
 630 238 l 1
 449 238 l 1
 632 55 l 1
 580 3 l 1
 360 223 l 1
 140 3 l 1
 88 55 l 1
 271 238 l 1
 90 238 l 1
 90 312 l 1
 271 312 l 1
 88 495 l 1xd8
423 467 m 0
 423 455 409 441 398 430 c 0
 387 418 373 404 360 404 c 0
 347 404 333 418 322 430 c 0
 311 441 297 455 297 467 c 0
 297 480 311 494 322 505 c 0
 333 517 347 530 360 530 c 0xe8
 373 530 387 517 398 505 c 0
 409 494 423 480 423 467 c 0
423 83 m 0
 423 70 409 56 398 45 c 0
 387 33 373 20 360 20 c 0
 347 20 333 33 322 45 c 0
 311 56 297 70 297 83 c 0
 297 95 311 109 322 120 c 0
 333 132 347 146 360 146 c 0
 373 146 387 132 398 120 c 0
 409 109 423 95 423 83 c 0
EndSplineSet
EndChar

StartChar: logicalnot
Encoding: 32 172 32
Width: 720
Flags: W
HStem: 238 74<90 556>
VStem: 556 74<46 238>
LayerCount: 2
Back
Fore
SplineSet
90 238 m 1
 90 312 l 1
 270 312 450 312 630 312 c 1
 630 223 630 135 630 46 c 1
 556 46 l 1
 556 238 l 1
 90 238 l 1
EndSplineSet
EndChar

StartChar: revlogicalnot
Encoding: 33 8976 33
Width: 720
Flags: W
HStem: 238 74<164 630>
VStem: 90 74<46 238>
LayerCount: 2
Back
Fore
SplineSet
164 238 m 1
 164 46 l 1
 90 46 l 1
 90 135 90 223 90 312 c 1
 270 312 450 312 630 312 c 1
 630 238 l 1
 164 238 l 1
EndSplineSet
EndChar

StartChar: uni2A3C
Encoding: 34 10812 34
Width: 720
Flags: W
HStem: 238 74<90 556>
VStem: 556 74<312 504>
LayerCount: 2
Back
Fore
SplineSet
90 238 m 1
 90 312 l 1
 556 312 l 1
 556 504 l 1
 630 504 l 1
 630 415 630 327 630 238 c 1
 450 238 270 238 90 238 c 1
EndSplineSet
EndChar

StartChar: uni2A3D
Encoding: 35 10813 35
Width: 720
Flags: W
HStem: 238 74<164 630>
VStem: 90 74<312 504>
LayerCount: 2
Back
Fore
SplineSet
630 238 m 1
 450 238 270 238 90 238 c 1
 90 327 90 415 90 504 c 1
 164 504 l 1
 164 312 l 1
 630 312 l 1
 630 238 l 1
EndSplineSet
EndChar

StartChar: uni22CB
Encoding: 36 8907 36
Width: 720
Flags: W
HStem: 527 20G<120 160>
LayerCount: 2
Back
Fore
SplineSet
632 55 m 1
 580 3 l 1
 360 223 l 1
 140 3 l 1
 88 55 l 1
 308 275 l 1
 88 495 l 1
 140 547 l 1
 632 55 l 1
EndSplineSet
EndChar

StartChar: uni22CC
Encoding: 37 8908 37
Width: 720
Flags: W
HStem: 527 20G<560 600>
LayerCount: 2
Back
Fore
SplineSet
580 547 m 1
 632 495 l 1
 412 275 l 1
 632 55 l 1
 580 3 l 1
 360 223 l 1
 140 3 l 1
 88 55 l 1
 580 547 l 1
EndSplineSet
EndChar

StartChar: uni2A32
Encoding: 38 10802 38
Width: 720
Flags: W
HStem: 7 74<218 502> 527 20G<120 160 560 600>
LayerCount: 2
Back
Fore
SplineSet
606 81 m 1
 586 7 l 1
 134 7 l 1
 114 81 l 1
 308 275 l 1
 88 495 l 1
 140 547 l 1
 360 327 l 1
 580 547 l 1
 632 495 l 1
 412 275 l 1
 606 81 l 1
502 81 m 1
 360 223 l 1
 218 81 l 1
 502 81 l 1
EndSplineSet
EndChar

StartChar: uni22CA
Encoding: 39 8906 39
Width: 720
Flags: W
HStem: 527 20G<120 160>
VStem: 554 74<133 417>
LayerCount: 2
Back
Fore
SplineSet
554 521 m 1
 628 501 l 1
 628 49 l 1
 554 29 l 1
 360 223 l 1
 140 3 l 1
 88 55 l 1
 308 275 l 1
 88 495 l 1
 140 547 l 1
 360 327 l 1
 554 521 l 1
554 417 m 1
 412 275 l 1
 554 133 l 1
 554 417 l 1
EndSplineSet
EndChar

StartChar: sym005
Encoding: 40 -1 40
Width: 720
Flags: W
HStem: 469 74<218 502>
LayerCount: 2
Back
Fore
SplineSet
114 469 m 1
 134 543 l 1
 586 543 l 1
 606 469 l 1
 412 275 l 1
 632 55 l 1
 580 3 l 1
 360 223 l 1
 140 3 l 1
 88 55 l 1
 308 275 l 1
 114 469 l 1
218 469 m 1
 360 327 l 1
 502 469 l 1
 218 469 l 1
EndSplineSet
EndChar

StartChar: uni22C9
Encoding: 41 8905 41
Width: 720
Flags: W
HStem: 527 20G<560 600>
VStem: 92 74<133 417>
LayerCount: 2
Back
Fore
SplineSet
166 29 m 1
 92 49 l 1
 92 501 l 1
 166 521 l 1
 360 327 l 1
 580 547 l 1
 632 495 l 1
 412 275 l 1
 632 55 l 1
 580 3 l 1
 360 223 l 1
 166 29 l 1
166 133 m 1
 308 275 l 1
 166 417 l 1
 166 133 l 1
EndSplineSet
EndChar

StartChar: uni22C8
Encoding: 42 8904 42
Width: 720
Flags: W
VStem: 92 74<133 417> 554 74<133 417>
LayerCount: 2
Back
Fore
SplineSet
166 29 m 1
 92 49 l 1
 92 501 l 1
 166 521 l 1
 360 327 l 1
 554 521 l 1
 628 501 l 1
 628 49 l 1
 554 29 l 1
 360 223 l 1
 166 29 l 1
554 417 m 1
 412 275 l 1
 554 133 l 1
 554 417 l 1
166 133 m 1
 308 275 l 1
 166 417 l 1
 166 133 l 1
EndSplineSet
EndChar

StartChar: uni29D6
Encoding: 43 10710 43
Width: 720
Flags: W
HStem: 7 74<218 502> 469 74<218 502>
LayerCount: 2
Back
Fore
SplineSet
606 81 m 1
 586 7 l 1
 134 7 l 1
 114 81 l 1
 308 275 l 1
 114 469 l 1
 134 543 l 1
 586 543 l 1
 606 469 l 1
 412 275 l 1
 606 81 l 1
218 469 m 1
 360 327 l 1
 502 469 l 1
 218 469 l 1
502 81 m 1
 360 223 l 1
 218 81 l 1
 502 81 l 1
EndSplineSet
EndChar

StartChar: sym006
Encoding: 44 -1 44
Width: 720
Flags: W
HStem: 238 74<339 630>
LayerCount: 2
Back
Fore
SplineSet
272 275 m 1
 81 465 l 1
 134 518 l 1
 339 312 l 1
 630 312 l 1
 630 238 l 1
 339 238 l 1
 134 32 l 1
 81 85 l 1
 272 275 l 1
EndSplineSet
EndChar

StartChar: sym007
Encoding: 45 -1 45
Width: 720
Flags: W
HStem: -4 21G<150 189.895 530.105 570> 525 20G<323 397>
VStem: 323 74<254 545>
LayerCount: 2
Back
Fore
SplineSet
360 187 m 1
 170 -4 l 1
 117 49 l 1
 323 254 l 1
 323 545 l 1
 397 545 l 1
 397 254 l 1
 603 49 l 1
 550 -4 l 1
 360 187 l 1
EndSplineSet
EndChar

StartChar: sym008
Encoding: 46 -1 46
Width: 720
Flags: W
HStem: 238 74<90 381>
LayerCount: 2
Back
Fore
SplineSet
448 275 m 1
 639 85 l 1
 586 32 l 1
 381 238 l 1
 90 238 l 1
 90 312 l 1
 381 312 l 1
 586 518 l 1
 639 465 l 1
 448 275 l 1
EndSplineSet
EndChar

StartChar: sym009
Encoding: 47 -1 47
Width: 720
Flags: W
HStem: 534 20G<150 189.895 530.105 570>
VStem: 323 74<5 296>
LayerCount: 2
Back
Fore
SplineSet
360 363 m 1
 550 554 l 1
 603 501 l 1
 397 296 l 1
 397 5 l 1
 323 5 l 1
 323 296 l 1
 117 501 l 1
 170 554 l 1
 360 363 l 1
EndSplineSet
EndChar

StartChar: logicaland
Encoding: 48 8743 48
Width: 720
Flags: W
HStem: 525 20G<326.766 393.234>
LayerCount: 2
Back
Fore
SplineSet
619 36 m 1
 552 5 l 1
 360 420 l 1
 168 5 l 1
 101 36 l 1
 336 545 l 1
 384 545 l 1
 619 36 l 1
EndSplineSet
EndChar

StartChar: logicalor
Encoding: 49 8744 49
Width: 720
Flags: W
HStem: 525 20G<124.774 177.253 542.747 595.226>
LayerCount: 2
Back
Fore
SplineSet
101 514 m 1
 168 545 l 1
 360 130 l 1
 552 545 l 1
 619 514 l 1
 384 5 l 1
 336 5 l 1
 101 514 l 1
EndSplineSet
EndChar

StartChar: uni27D1
Encoding: 50 10193 50
Width: 720
Flags: W
HStem: 32 126<325.17 394.83> 525 20G<326.766 393.234>
VStem: 297 126<60.1696 129.83>
LayerCount: 2
Back
Fore
SplineSet
619 36 m 1
 552 5 l 1
 360 420 l 1
 168 5 l 1
 101 36 l 1
 336 545 l 1
 384 545 l 1
 619 36 l 1
423 95 m 0
 423 82 409 68 398 57 c 0
 387 46 373 32 360 32 c 0
 347 32 333 46 322 57 c 0
 311 68 297 82 297 95 c 0
 297 108 311 122 322 133 c 0
 333 144 347 158 360 158 c 0
 373 158 387 144 398 133 c 0
 409 122 423 108 423 95 c 0
EndSplineSet
EndChar

StartChar: uni27C7
Encoding: 51 10183 51
Width: 720
Flags: W
HStem: 392 126<325.17 394.83> 525 20G<124.774 177.253 542.747 595.226>
VStem: 297 126<420.17 489.83>
LayerCount: 2
Back
Fore
SplineSet
101 514 m 1
 168 545 l 1
 360 130 l 1
 552 545 l 1
 619 514 l 1
 384 5 l 1
 336 5 l 1
 101 514 l 1
423 455 m 0
 423 442 409 428 398 417 c 0
 387 406 373 392 360 392 c 0
 347 392 333 406 322 417 c 0
 311 428 297 442 297 455 c 0
 297 468 311 482 322 493 c 0
 333 504 347 518 360 518 c 0
 373 518 387 504 398 493 c 0
 409 482 423 468 423 455 c 0
EndSplineSet
EndChar

StartChar: uni2A55
Encoding: 52 10837 52
Width: 960
Flags: W
HStem: 525 20G<326.766 393.231 566.769 633.234>
LayerCount: 2
Back
Fore
SplineSet
859 36 m 1
 792 5 l 1
 600 420 l 1
 521 249 l 1
 619 36 l 1
 552 5 l 1
 480 161 l 1
 408 5 l 1
 341 36 l 1
 439 249 l 1
 360 420 l 1
 168 5 l 1
 101 36 l 1
 336 545 l 1
 384 545 l 1
 480 337 l 1
 576 545 l 1
 624 545 l 1
 859 36 l 1
EndSplineSet
EndChar

StartChar: uni2A56
Encoding: 53 10838 53
Width: 960
Flags: W
HStem: 525 20G<124.774 177.253 364.774 417.231 542.769 595.226 782.747 835.226>
LayerCount: 2
Back
Fore
SplineSet
341 514 m 1
 408 545 l 1
 480 389 l 1
 552 545 l 1
 619 514 l 1
 521 301 l 1
 600 130 l 1
 792 545 l 1
 859 514 l 1
 624 5 l 1
 576 5 l 1
 480 213 l 1
 384 5 l 1
 336 5 l 1
 101 514 l 1
 168 545 l 1
 360 130 l 1
 439 301 l 1
 341 514 l 1
EndSplineSet
EndChar

StartChar: uni22CF
Encoding: 54 8911 54
Width: 720
Flags: W
HStem: 525 20G<323 397>
VStem: 323 74<365.882 545>
LayerCount: 2
Back
Fore
SplineSet
360 306 m 1
 318 192 243 90 152 5 c 1
 102 59 l 1
 229 178 323 334 323 508 c 2
 323 545 l 1
 397 545 l 1
 397 508 l 2
 397 334 491 178 618 59 c 1
 568 5 l 1
 477 90 402 192 360 306 c 1
EndSplineSet
EndChar

StartChar: uni22CE
Encoding: 55 8910 55
Width: 720
Flags: W
HStem: 525 20G<133.481 197.5 522.5 586.519>
VStem: 323 74<5 184.118>
LayerCount: 2
Back
Fore
SplineSet
360 244 m 1
 402 358 477 460 568 545 c 1
 618 491 l 1
 491 372 397 216 397 42 c 2
 397 5 l 1
 323 5 l 1
 323 42 l 2
 323 216 229 372 102 491 c 1
 152 545 l 1
 243 460 318 358 360 244 c 1
EndSplineSet
EndChar

StartChar: uni22BC
Encoding: 56 8892 56
Width: 720
Flags: W
HStem: 539 74<90 630>
LayerCount: 2
Back
Fore
SplineSet
619 -31 m 1
 552 -63 l 1
 360 352 l 1
 168 -63 l 1
 101 -31 l 1
 336 478 l 1
 384 478 l 1
 619 -31 l 1
90 539 m 1
 90 613 l 1
 630 613 l 1
 630 539 l 1
 90 539 l 1
EndSplineSet
EndChar

StartChar: uni22BB
Encoding: 57 8891 57
Width: 720
Flags: W
HStem: -63 74<90 630>
LayerCount: 2
Back
Fore
SplineSet
101 581 m 1
 168 613 l 1
 360 198 l 1
 552 613 l 1
 619 581 l 1
 384 72 l 1
 336 72 l 1
 101 581 l 1
90 -63 m 1
 90 11 l 1
 630 11 l 1
 630 -63 l 1
 90 -63 l 1
EndSplineSet
EndChar

StartChar: uni2A5E
Encoding: 58 10846 58
Width: 720
Flags: W
HStem: 471 74<90 630> 606 74<90 630>
LayerCount: 2
Back
Fore
SplineSet
619 -99 m 1
 552 -130 l 1
 360 285 l 1
 168 -130 l 1
 101 -99 l 1
 336 410 l 1
 384 410 l 1
 619 -99 l 1
90 471 m 1
 90 545 l 1
 630 545 l 1
 630 471 l 1
 90 471 l 1
90 606 m 1
 90 680 l 1
 630 680 l 1
 630 606 l 1
 90 606 l 1
EndSplineSet
EndChar

StartChar: uni2A63
Encoding: 59 10851 59
Width: 720
Flags: W
HStem: -130 74<90 630> 5 74<90 630>
LayerCount: 2
Back
Fore
SplineSet
101 649 m 1
 168 680 l 1
 360 265 l 1
 552 680 l 1
 619 649 l 1
 384 140 l 1
 336 140 l 1
 101 649 l 1
90 5 m 1
 90 79 l 1
 630 79 l 1
 630 5 l 1
 90 5 l 1
90 -130 m 1
 90 -56 l 1
 630 -56 l 1
 630 -130 l 1
 90 -130 l 1
EndSplineSet
EndChar

StartChar: union
Encoding: 60 8746 60
Width: 720
Flags: W
HStem: 5 74<262.536 457.464> 525 20G<90 164 556 630>
VStem: 90 74<163.949 545> 556 74<163.949 545>
LayerCount: 2
Back
Fore
SplineSet
164 545 m 1
 164 235 l 2
 164 141 258 79 360 79 c 0
 462 79 556 141 556 235 c 2
 556 545 l 1
 630 545 l 1
 630 235 l 2
 630 100 502 5 360 5 c 0
 218 5 90 100 90 235 c 2
 90 545 l 1
 164 545 l 1
EndSplineSet
EndChar

StartChar: intersection
Encoding: 61 8745 61
Width: 720
Flags: W
HStem: 471 74<262.536 457.464>
VStem: 90 74<5 386.051> 556 74<5 386.051>
LayerCount: 2
Back
Fore
SplineSet
556 5 m 1
 556 315 l 2
 556 409 462 471 360 471 c 0
 258 471 164 409 164 315 c 2
 164 5 l 1
 90 5 l 1
 90 315 l 2
 90 450 218 545 360 545 c 0
 502 545 630 450 630 315 c 2
 630 5 l 1
 556 5 l 1
EndSplineSet
EndChar

StartChar: uni22D3
Encoding: 62 8915 62
Width: 900
Flags: W
HStem: -85 74<329.614 570.386> 125 74<380.745 519.255>
VStem: 90 74<136.103 635> 278 74<227.407 635> 548 74<227.407 635> 736 74<136.103 635>
LayerCount: 2
Back
Fore
SplineSet
352 635 m 1
 352 273 l 2
 352 227 400 199 450 199 c 0
 500 199 548 227 548 273 c 2
 548 635 l 1
 622 635 l 1
 622 273 l 2
 622 187 541 125 450 125 c 0
 359 125 278 187 278 273 c 2
 278 635 l 1
 352 635 l 1
164 635 m 1
 164 224 l 2
 164 84 300 -11 450 -11 c 0
 600 -11 736 84 736 224 c 2
 736 635 l 1
 810 635 l 1
 810 224 l 2
 810 44 640 -85 450 -85 c 0
 260 -85 90 44 90 224 c 2
 90 635 l 1
 164 635 l 1
EndSplineSet
EndChar

StartChar: uni22D2
Encoding: 63 8914 63
Width: 900
Flags: W
HStem: 351 74<380.745 519.255> 561 74<329.614 570.386>
VStem: 90 74<-85 413.897> 278 74<-85 322.593> 548 74<-85 322.593> 736 74<-85 413.897>
LayerCount: 2
Back
Fore
SplineSet
548 -85 m 1
 548 277 l 2
 548 323 500 351 450 351 c 0
 400 351 352 323 352 277 c 2
 352 -85 l 1
 278 -85 l 1
 278 277 l 2
 278 363 359 425 450 425 c 0
 541 425 622 363 622 277 c 2
 622 -85 l 1
 548 -85 l 1
736 -85 m 1
 736 326 l 2
 736 466 600 561 450 561 c 0
 300 561 164 466 164 326 c 2
 164 -85 l 1
 90 -85 l 1
 90 326 l 2
 90 506 260 635 450 635 c 0
 640 635 810 506 810 326 c 2
 810 -85 l 1
 736 -85 l 1
EndSplineSet
EndChar

StartChar: uni228D
Encoding: 64 8845 64
Width: 720
Flags: W
HStem: 5 74<262.536 457.464> 302 126<325.17 394.83> 525 20G<90 164 556 630>
VStem: 90 74<163.949 545> 297 126<330.17 399.83> 556 74<163.949 545>
CounterMasks: 1 1c
LayerCount: 2
Back
Fore
SplineSet
164 545 m 1
 164 235 l 2
 164 141 258 79 360 79 c 0
 462 79 556 141 556 235 c 2
 556 545 l 1
 630 545 l 1
 630 235 l 2
 630 100 502 5 360 5 c 0
 218 5 90 100 90 235 c 2
 90 545 l 1
 164 545 l 1
423 365 m 0
 423 352 409 338 398 327 c 0
 387 316 373 302 360 302 c 0
 347 302 333 316 322 327 c 0
 311 338 297 352 297 365 c 0
 297 378 311 392 322 403 c 0
 333 414 347 428 360 428 c 0
 373 428 387 414 398 403 c 0
 409 392 423 378 423 365 c 0
EndSplineSet
EndChar

StartChar: uni2A40
Encoding: 65 10816 65
Width: 720
Flags: W
HStem: 122 126<325.17 394.83> 471 74<262.536 457.464>
VStem: 90 74<5 386.051> 297 126<150.17 219.83> 556 74<5 386.051>
CounterMasks: 1 38
LayerCount: 2
Back
Fore
SplineSet
556 5 m 1
 556 315 l 2
 556 409 462 471 360 471 c 0
 258 471 164 409 164 315 c 2
 164 5 l 1
 90 5 l 1
 90 315 l 2
 90 450 218 545 360 545 c 0
 502 545 630 450 630 315 c 2
 630 5 l 1
 556 5 l 1
423 185 m 0
 423 172 409 158 398 147 c 0
 387 136 373 122 360 122 c 0
 347 122 333 136 322 147 c 0
 311 158 297 172 297 185 c 0
 297 198 311 212 322 223 c 0
 333 234 347 248 360 248 c 0
 373 248 387 234 398 223 c 0
 409 212 423 198 423 185 c 0
EndSplineSet
EndChar

StartChar: uni228E
Encoding: 66 8846 66
Width: 720
Flags: W
HStem: 5 74<262.536 457.464> 328 74<233 323 397 487> 525 20G<90 164 556 630>
VStem: 90 74<163.949 545> 323 74<238 328 402 492> 556 74<163.949 545>
CounterMasks: 1 1c
LayerCount: 2
Back
Fore
SplineSet
164 545 m 1
 164 235 l 2
 164 141 258 79 360 79 c 0
 462 79 556 141 556 235 c 2
 556 545 l 1
 630 545 l 1
 630 235 l 2
 630 100 502 5 360 5 c 0
 218 5 90 100 90 235 c 2
 90 545 l 1
 164 545 l 1
323 492 m 1
 397 492 l 1
 397 402 l 1
 487 402 l 1
 487 328 l 1
 397 328 l 1
 397 238 l 1
 323 238 l 1
 323 328 l 1
 233 328 l 1
 233 402 l 1
 323 402 l 1
 323 492 l 1
EndSplineSet
EndChar

StartChar: sym00A
Encoding: 67 -1 67
Width: 720
Flags: W
HStem: 148 74<233 323 397 487> 471 74<262.536 457.464>
VStem: 90 74<5 386.051> 323 74<58 148 222 312> 556 74<5 386.051>
CounterMasks: 1 38
LayerCount: 2
Back
Fore
SplineSet
556 5 m 1
 556 315 l 2
 556 409 462 471 360 471 c 0
 258 471 164 409 164 315 c 2
 164 5 l 1
 90 5 l 1
 90 315 l 2
 90 450 218 545 360 545 c 0
 502 545 630 450 630 315 c 2
 630 5 l 1
 556 5 l 1
323 312 m 1
 397 312 l 1
 397 222 l 1
 487 222 l 1
 487 148 l 1
 397 148 l 1
 397 58 l 1
 323 58 l 1
 323 148 l 1
 233 148 l 1
 233 222 l 1
 323 222 l 1
 323 312 l 1
EndSplineSet
EndChar

StartChar: uni2294
Encoding: 68 8852 68
Width: 720
Flags: W
HStem: 5 74<164 556> 525 20G<90 164 556 630>
VStem: 90 74<79 545> 556 74<79 545>
LayerCount: 2
Back
Fore
SplineSet
90 545 m 1
 164 545 l 1
 164 79 l 1
 556 79 l 1
 556 545 l 1
 630 545 l 1
 630 5 l 1
 90 5 l 1
 90 545 l 1
EndSplineSet
EndChar

StartChar: uni2293
Encoding: 69 8851 69
Width: 720
Flags: W
HStem: 471 74<164 556>
VStem: 90 74<5 471> 556 74<5 471>
LayerCount: 2
Back
Fore
SplineSet
164 5 m 1
 90 5 l 1
 90 545 l 1
 630 545 l 1
 630 5 l 1
 556 5 l 1
 556 471 l 1
 164 471 l 1
 164 5 l 1
EndSplineSet
EndChar

StartChar: uni2A4F
Encoding: 70 10831 70
Width: 900
Flags: W
HStem: -85 74<164 736> 103 74<337 563>
VStem: 90 74<-11 635> 263 74<177 635> 563 74<177 635> 736 74<-11 635>
LayerCount: 2
Back
Fore
SplineSet
90 635 m 1
 164 635 l 1
 164 -11 l 1
 736 -11 l 1
 736 635 l 1
 810 635 l 1
 810 -85 l 1
 90 -85 l 1
 90 635 l 1
263 635 m 1
 337 635 l 1
 337 177 l 1
 563 177 l 1
 563 635 l 1
 637 635 l 1
 637 103 l 1
 263 103 l 1
 263 635 l 1
EndSplineSet
EndChar

StartChar: uni2A4E
Encoding: 71 10830 71
Width: 900
Flags: W
HStem: 373 74<337 563> 561 74<164 736>
VStem: 90 74<-85 561> 263 74<-85 373> 563 74<-85 373> 736 74<-85 561>
LayerCount: 2
Back
Fore
SplineSet
164 -85 m 1
 90 -85 l 1
 90 635 l 1
 810 635 l 1
 810 -85 l 1
 736 -85 l 1
 736 561 l 1
 164 561 l 1
 164 -85 l 1
337 -85 m 1
 263 -85 l 1
 263 447 l 1
 637 447 l 1
 637 -85 l 1
 563 -85 l 1
 563 373 l 1
 337 373 l 1
 337 -85 l 1
EndSplineSet
EndChar

StartChar: sym00B
Encoding: 72 -1 72
Width: 720
Flags: W
HStem: 5 74<164 556> 302 126<325.17 394.83> 525 20G<90 164 556 630>
VStem: 90 74<79 545> 297 126<330.17 399.83> 556 74<79 545>
CounterMasks: 1 1c
LayerCount: 2
Back
Fore
SplineSet
90 545 m 1
 164 545 l 1
 164 79 l 1
 556 79 l 1
 556 545 l 1
 630 545 l 1
 630 5 l 1
 90 5 l 1
 90 545 l 1
423 365 m 0
 423 352 409 338 398 327 c 0
 387 316 373 302 360 302 c 0
 347 302 333 316 322 327 c 0
 311 338 297 352 297 365 c 0
 297 378 311 392 322 403 c 0
 333 414 347 428 360 428 c 0
 373 428 387 414 398 403 c 0
 409 392 423 378 423 365 c 0
EndSplineSet
EndChar

StartChar: sym00C
Encoding: 73 -1 73
Width: 720
Flags: W
HStem: 122 126<325.17 394.83> 471 74<164 556>
VStem: 90 74<5 471> 297 126<150.17 219.83> 556 74<5 471>
CounterMasks: 1 38
LayerCount: 2
Back
Fore
SplineSet
164 5 m 1
 90 5 l 1
 90 545 l 1
 630 545 l 1
 630 5 l 1
 556 5 l 1
 556 471 l 1
 164 471 l 1
 164 5 l 1
423 185 m 0
 423 172 409 158 398 147 c 0
 387 136 373 122 360 122 c 0
 347 122 333 136 322 147 c 0
 311 158 297 172 297 185 c 0
 297 198 311 212 322 223 c 0
 333 234 347 248 360 248 c 0
 373 248 387 234 398 223 c 0
 409 212 423 198 423 185 c 0
EndSplineSet
EndChar

StartChar: sym00D
Encoding: 74 -1 74
Width: 720
Flags: W
HStem: 5 74<164 556> 328 74<233 323 397 487> 525 20G<90 164 556 630>
VStem: 90 74<79 545> 323 74<238 328 402 492> 556 74<79 545>
CounterMasks: 1 1c
LayerCount: 2
Back
Fore
SplineSet
90 545 m 1
 164 545 l 1
 164 79 l 1
 556 79 l 1
 556 545 l 1
 630 545 l 1
 630 5 l 1
 90 5 l 1
 90 545 l 1
323 492 m 1
 397 492 l 1
 397 402 l 1
 487 402 l 1
 487 328 l 1
 397 328 l 1
 397 238 l 1
 323 238 l 1
 323 328 l 1
 233 328 l 1
 233 402 l 1
 323 402 l 1
 323 492 l 1
EndSplineSet
EndChar

StartChar: sym00E
Encoding: 75 -1 75
Width: 720
Flags: W
HStem: 148 74<233 323 397 487> 471 74<164 556>
VStem: 90 74<5 471> 323 74<58 148 222 312> 556 74<5 471>
CounterMasks: 1 38
LayerCount: 2
Back
Fore
SplineSet
164 5 m 1
 90 5 l 1
 90 545 l 1
 630 545 l 1
 630 5 l 1
 556 5 l 1
 556 471 l 1
 164 471 l 1
 164 5 l 1
323 312 m 1
 397 312 l 1
 397 222 l 1
 487 222 l 1
 487 148 l 1
 397 148 l 1
 397 58 l 1
 323 58 l 1
 323 148 l 1
 233 148 l 1
 233 222 l 1
 323 222 l 1
 323 312 l 1
EndSplineSet
EndChar

StartChar: uni27D3
Encoding: 76 10195 76
Width: 720
Flags: W
HStem: 5 74<90 556> 212 126<325.17 394.83> 525 20G<556 630>
VStem: 297 126<240.17 309.83> 556 74<79 545>
LayerCount: 2
Back
Fore
SplineSet
90 5 m 1
 90 79 l 1
 556 79 l 1
 556 545 l 1
 630 545 l 1
 630 365 630 185 630 5 c 1
 450 5 270 5 90 5 c 1
423 275 m 0
 423 262 409 248 398 237 c 0
 387 226 373 212 360 212 c 0
 347 212 333 226 322 237 c 0
 311 248 297 262 297 275 c 0
 297 288 311 302 322 313 c 0
 333 324 347 338 360 338 c 0
 373 338 387 324 398 313 c 0
 409 302 423 288 423 275 c 0
EndSplineSet
EndChar

StartChar: uni27D4
Encoding: 77 10196 77
Width: 720
Flags: W
HStem: 212 126<325.17 394.83> 471 74<164 630>
VStem: 90 74<5 471> 297 126<240.17 309.83>
LayerCount: 2
Back
Fore
SplineSet
630 545 m 1
 630 471 l 1
 164 471 l 1
 164 5 l 1
 90 5 l 1
 90 185 90 365 90 545 c 1
 270 545 450 545 630 545 c 1
423 275 m 0
 423 262 409 248 398 237 c 0
 387 226 373 212 360 212 c 0
 347 212 333 226 322 237 c 0
 311 248 297 262 297 275 c 0
 297 288 311 302 322 313 c 0
 333 324 347 338 360 338 c 0
 373 338 387 324 398 313 c 0
 409 302 423 288 423 275 c 0
EndSplineSet
EndChar

StartChar: uni25B9
Encoding: 78 9657 78
Width: 651
Flags: W
HStem: 527 20G<90 124.632>
VStem: 90 74<131 419>
LayerCount: 2
Back
Fore
SplineSet
561 275 m 1
 90 3 l 1
 90 547 l 1
 561 275 l 1
413 275 m 1
 164 419 l 1
 164 131 l 1
 413 275 l 1
EndSplineSet
EndChar

StartChar: uni25B5
Encoding: 79 9653 79
Width: 724
Flags: W
HStem: 39 74<218 506>
LayerCount: 2
Back
Fore
SplineSet
362 511 m 1
 634 39 l 1
 90 39 l 1
 362 511 l 1
362 363 m 1
 218 113 l 1
 506 113 l 1
 362 363 l 1
EndSplineSet
EndChar

StartChar: uni25C3
Encoding: 80 9667 80
Width: 651
Flags: W
HStem: 527 20G<526.368 561>
VStem: 487 74<131 419>
LayerCount: 2
Back
Fore
SplineSet
90 275 m 1
 561 547 l 1
 561 3 l 1
 90 275 l 1
238 275 m 1
 487 131 l 1
 487 419 l 1
 238 275 l 1
EndSplineSet
EndChar

StartChar: uni25BF
Encoding: 81 9663 81
Width: 724
Flags: W
HStem: 437 74<218 506>
LayerCount: 2
Back
Fore
SplineSet
362 39 m 1
 90 511 l 1
 634 511 l 1
 362 39 l 1
362 187 m 1
 506 437 l 1
 218 437 l 1
 362 187 l 1
EndSplineSet
EndChar

StartChar: uni25B8
Encoding: 82 9656 82
Width: 651
Flags: W
HStem: 527 20G<90 124.632>
LayerCount: 2
Back
Fore
SplineSet
561 275 m 1
 90 3 l 1
 90 547 l 1
 561 275 l 1
EndSplineSet
EndChar

StartChar: uni25B4
Encoding: 83 9652 83
Width: 724
Flags: W
LayerCount: 2
Back
Fore
SplineSet
362 511 m 1
 634 39 l 1
 90 39 l 1
 362 511 l 1
EndSplineSet
EndChar

StartChar: uni25C2
Encoding: 84 9666 84
Width: 651
Flags: W
HStem: 527 20G<526.368 561>
LayerCount: 2
Back
Fore
SplineSet
90 275 m 1
 561 547 l 1
 561 3 l 1
 90 275 l 1
EndSplineSet
EndChar

StartChar: uni25BE
Encoding: 85 9662 85
Width: 724
Flags: W
LayerCount: 2
Back
Fore
SplineSet
362 39 m 1
 90 511 l 1
 634 511 l 1
 362 39 l 1
EndSplineSet
EndChar

StartChar: uni25B7
Encoding: 86 9655 86
Width: 854
Flags: W
VStem: 90 74<14 536>
LayerCount: 2
Back
Fore
SplineSet
764 275 m 1
 90 -114 l 1
 90 664 l 1
 764 275 l 1
616 275 m 1
 164 536 l 1
 164 14 l 1
 616 275 l 1
EndSplineSet
EndChar

StartChar: uni25B3
Encoding: 87 9651 87
Width: 958
Flags: W
HStem: -62 74<218 740>
LayerCount: 2
Back
Fore
SplineSet
479 612 m 1
 868 -62 l 1
 90 -62 l 1
 479 612 l 1
479 464 m 1
 218 12 l 1
 740 12 l 1
 479 464 l 1
EndSplineSet
EndChar

StartChar: uni25C1
Encoding: 88 9665 88
Width: 854
Flags: W
VStem: 690 74<14 536>
LayerCount: 2
Back
Fore
SplineSet
90 275 m 1
 764 664 l 1
 764 -114 l 1
 90 275 l 1
238 275 m 1
 690 14 l 1
 690 536 l 1
 238 275 l 1
EndSplineSet
EndChar

StartChar: uni25BD
Encoding: 89 9661 89
Width: 958
Flags: W
HStem: 538 74<218 740>
LayerCount: 2
Back
Fore
SplineSet
479 -62 m 1
 90 612 l 1
 868 612 l 1
 479 -62 l 1
479 86 m 1
 740 538 l 1
 218 538 l 1
 479 86 l 1
EndSplineSet
EndChar

StartChar: uni25B6
Encoding: 90 9654 90
Width: 854
Flags: W
LayerCount: 2
Back
Fore
SplineSet
764 275 m 1
 90 -114 l 1
 90 664 l 1
 764 275 l 1
EndSplineSet
EndChar

StartChar: uni25B2
Encoding: 91 9650 91
Width: 958
Flags: W
LayerCount: 2
Back
Fore
SplineSet
479 612 m 1
 868 -62 l 1
 90 -62 l 1
 479 612 l 1
EndSplineSet
EndChar

StartChar: uni25C0
Encoding: 92 9664 92
Width: 854
Flags: W
LayerCount: 2
Back
Fore
SplineSet
90 275 m 1
 764 664 l 1
 764 -114 l 1
 90 275 l 1
EndSplineSet
EndChar

StartChar: uni25BC
Encoding: 93 9660 93
Width: 958
Flags: W
LayerCount: 2
Back
Fore
SplineSet
479 -62 m 1
 90 612 l 1
 868 612 l 1
 479 -62 l 1
EndSplineSet
EndChar

StartChar: sym00F
Encoding: 94 -1 94
Width: 1243
Flags: W
HStem: -186 74<218 1025>
LayerCount: 2
Back
Fore
SplineSet
622 736 m 1
 1153 -186 l 1
 90 -186 l 1
 622 736 l 1
622 588 m 1
 218 -112 l 1
 1025 -112 l 1
 622 588 l 1
EndSplineSet
EndChar

StartChar: sym010
Encoding: 95 -1 95
Width: 1243
Flags: W
HStem: 662 74<218 1025>
LayerCount: 2
Back
Fore
SplineSet
622 -186 m 1
 90 736 l 1
 1153 736 l 1
 622 -186 l 1
622 -38 m 1
 1025 662 l 1
 218 662 l 1
 622 -38 l 1
EndSplineSet
EndChar

StartChar: openbullet
Encoding: 96 9702 96
Width: 564
Flags: W
HStem: 83 74<215.733 348.267> 393 74<215.733 348.267>
VStem: 90 74<208.733 341.267> 400 74<208.733 341.267>
LayerCount: 2
Back
Fore
SplineSet
474 275 m 0
 474 224 454 175 418 139 c 0
 382 103 333 83 282 83 c 0
 231 83 182 103 146 139 c 0
 110 175 90 224 90 275 c 0
 90 326 110 375 146 411 c 0
 182 447 231 467 282 467 c 0
 333 467 382 447 418 411 c 0
 454 375 474 326 474 275 c 0
282 157 m 0
 346 157 400 211 400 275 c 0
 400 339 346 393 282 393 c 0
 218 393 164 339 164 275 c 0
 164 211 218 157 282 157 c 0
EndSplineSet
EndChar

StartChar: bullet
Encoding: 97 8226 97
Width: 564
Flags: W
HStem: 83 384<193.483 370.517>
VStem: 90 384<186.483 363.517>
LayerCount: 2
Back
Fore
SplineSet
474 275 m 0
 474 224 454 175 418 139 c 0
 382 103 333 83 282 83 c 0
 231 83 182 103 146 139 c 0
 110 175 90 224 90 275 c 0
 90 326 110 375 146 411 c 0
 182 447 231 467 282 467 c 0
 333 467 382 447 418 411 c 0
 454 375 474 326 474 275 c 0
EndSplineSet
EndChar

StartChar: circle
Encoding: 98 9675 98
Width: 780
Flags: W
HStem: -25 74<294.554 485.446> 501 74<294.554 485.446>
VStem: 90 74<179.554 370.446> 616 74<179.554 370.446>
LayerCount: 2
Back
Fore
SplineSet
690 275 m 0
 690 195 658 119 602 63 c 0
 546 7 470 -25 390 -25 c 0
 310 -25 234 7 178 63 c 0
 122 119 90 195 90 275 c 0
 90 355 122 431 178 487 c 0
 234 543 310 575 390 575 c 0
 470 575 546 543 602 487 c 0
 658 431 690 355 690 275 c 0
616 275 m 0
 616 335 592 392 550 435 c 0
 507 477 450 501 390 501 c 0
 330 501 273 477 230 435 c 0
 188 392 164 335 164 275 c 0
 164 215 188 158 230 115 c 0
 273 73 330 49 390 49 c 0
 450 49 507 73 550 115 c 0
 592 158 616 215 616 275 c 0
EndSplineSet
EndChar

StartChar: uni25CF
Encoding: 99 9679 99
Width: 780
Flags: W
HStem: -25 600<278.384 501.616>
VStem: 90 600<163.384 386.616>
LayerCount: 2
Back
Fore
SplineSet
690 275 m 0
 690 195 658 119 602 63 c 0
 546 7 470 -25 390 -25 c 0
 310 -25 234 7 178 63 c 0
 122 119 90 195 90 275 c 0
 90 355 122 431 178 487 c 0
 234 543 310 575 390 575 c 0
 470 575 546 543 602 487 c 0
 658 431 690 355 690 275 c 0
EndSplineSet
EndChar

StartChar: uni2296
Encoding: 100 8854 100
Width: 780
Flags: W
HStem: -25 74<294.554 485.446> 238 74<167 613> 501 74<294.554 485.446>
VStem: 90 77<173.95 238 312 376.05> 613 77<173.95 238 312 376.05>
CounterMasks: 1 e0
LayerCount: 2
Back
Fore
SplineSet
167 312 m 1
 613 312 l 1
 605 358 583 401 550 435 c 0
 507 477 450 501 390 501 c 0
 330 501 273 477 230 435 c 0
 197 401 175 358 167 312 c 1
613 238 m 1
 167 238 l 1
 175 192 197 149 230 115 c 0
 273 73 330 49 390 49 c 0
 450 49 507 73 550 115 c 0
 583 149 605 192 613 238 c 1
690 275 m 0
 690 195 658 119 602 63 c 0
 546 7 470 -25 390 -25 c 0
 310 -25 234 7 178 63 c 0
 122 119 90 195 90 275 c 0
 90 355 122 431 178 487 c 0
 234 543 310 575 390 575 c 0
 470 575 546 543 602 487 c 0
 658 431 690 355 690 275 c 0
EndSplineSet
EndChar

StartChar: uni29B6
Encoding: 101 10678 101
Width: 780
Flags: W
HStem: -25 77<288.95 353 427 491.05> 498 77<288.95 353 427 491.05>
VStem: 90 74<179.554 370.446> 353 74<52 498> 616 74<179.554 370.446>
CounterMasks: 1 38
LayerCount: 2
Back
Fore
SplineSet
353 52 m 1
 353 498 l 1
 307 490 264 468 230 435 c 0
 188 392 164 335 164 275 c 0
 164 215 188 158 230 115 c 0
 264 82 307 60 353 52 c 1
690 275 m 0
 690 195 658 119 602 63 c 0
 546 7 470 -25 390 -25 c 0
 310 -25 234 7 178 63 c 0
 122 119 90 195 90 275 c 0
 90 355 122 431 178 487 c 0
 234 543 310 575 390 575 c 0
 470 575 546 543 602 487 c 0
 658 431 690 355 690 275 c 0
616 275 m 0
 616 335 592 392 550 435 c 0
 516 468 473 490 427 498 c 1
 427 52 l 1
 473 60 516 82 550 115 c 0
 592 158 616 215 616 275 c 0
EndSplineSet
EndChar

StartChar: uni2298
Encoding: 102 8856 102
Width: 780
Flags: W
HStem: -25 74<294.678 485.446> 501 74<294.554 485.322>
VStem: 90 74<179.678 370.446> 616 74<179.554 370.322>
LayerCount: 2
Back
Fore
SplineSet
206 143 m 1
 522 459 l 1
 484 486 438 501 390 501 c 0
 330 501 273 477 230 435 c 0
 188 392 164 335 164 275 c 0
 164 227 179 181 206 143 c 1
258 91 m 1
 296 64 342 49 390 49 c 0
 450 49 507 73 550 115 c 0
 592 158 616 215 616 275 c 0
 616 323 601 369 574 407 c 1
 258 91 l 1
690 275 m 0
 690 195 658 119 602 63 c 0
 546 7 470 -25 390 -25 c 0
 310 -25 234 7 178 63 c 0
 122 119 90 195 90 275 c 0
 90 355 122 431 178 487 c 0
 234 543 310 575 390 575 c 0
 470 575 546 543 602 487 c 0
 658 431 690 355 690 275 c 0
EndSplineSet
EndChar

StartChar: uni29B8
Encoding: 103 10680 103
Width: 780
Flags: W
HStem: -25 74<294.554 485.322> 501 74<294.678 485.446>
VStem: 90 74<179.554 370.322> 616 74<179.678 370.446>
LayerCount: 2
Back
Fore
SplineSet
522 91 m 1
 206 407 l 1
 179 369 164 323 164 275 c 0
 164 215 188 158 230 115 c 0
 273 73 330 49 390 49 c 0
 438 49 484 64 522 91 c 1
690 275 m 0
 690 195 658 119 602 63 c 0
 546 7 470 -25 390 -25 c 0
 310 -25 234 7 178 63 c 0
 122 119 90 195 90 275 c 0
 90 355 122 431 178 487 c 0
 234 543 310 575 390 575 c 0
 470 575 546 543 602 487 c 0
 658 431 690 355 690 275 c 0
616 275 m 0
 616 335 592 392 550 435 c 0
 507 477 450 501 390 501 c 0
 342 501 296 486 258 459 c 1
 574 143 l 1
 601 181 616 227 616 275 c 0
EndSplineSet
EndChar

StartChar: circleplus
Encoding: 104 8853 104
Width: 780
Flags: W
HStem: -25 77<288.95 353 427 491.05> 238 74<167 353 427 613> 498 77<288.95 353 427 491.05>
VStem: 90 77<173.95 238 312 376.05> 353 74<52 238 312 498> 613 77<173.95 238 312 376.05>
CounterMasks: 1 fc
LayerCount: 2
Back
Fore
SplineSet
353 312 m 1
 353 498 l 1
 307 490 264 468 230 435 c 0
 197 401 175 358 167 312 c 1
 353 312 l 1
427 312 m 1
 613 312 l 1
 605 358 583 401 550 435 c 0
 516 468 473 490 427 498 c 1
 427 312 l 1
353 238 m 1
 167 238 l 1
 175 192 197 149 230 115 c 0
 264 82 307 60 353 52 c 1
 353 238 l 1
427 238 m 1
 427 52 l 1
 473 60 516 82 550 115 c 0
 583 149 605 192 613 238 c 1
 427 238 l 1
690 275 m 0
 690 195 658 119 602 63 c 0
 546 7 470 -25 390 -25 c 0
 310 -25 234 7 178 63 c 0
 122 119 90 195 90 275 c 0
 90 355 122 431 178 487 c 0
 234 543 310 575 390 575 c 0
 470 575 546 543 602 487 c 0
 658 431 690 355 690 275 c 0
EndSplineSet
EndChar

StartChar: circlemultiply
Encoding: 105 8855 105
Width: 780
Flags: W
HStem: -25 74<294.678 485.322> 501 74<294.678 485.322>
VStem: 90 74<179.678 370.322> 616 74<179.678 370.322>
LayerCount: 2
Back
Fore
SplineSet
390 223 m 1
 258 91 l 1
 296 64 342 49 390 49 c 0
 438 49 484 64 522 91 c 1
 390 223 l 1
442 275 m 1
 574 143 l 1
 601 181 616 227 616 275 c 0
 616 323 601 369 574 407 c 1
 442 275 l 1
338 275 m 1
 206 407 l 1
 179 369 164 323 164 275 c 0
 164 227 179 181 206 143 c 1
 338 275 l 1
390 327 m 1
 522 459 l 1
 484 486 438 501 390 501 c 0
 342 501 296 486 258 459 c 1
 390 327 l 1
690 275 m 0
 690 195 658 119 602 63 c 0
 546 7 470 -25 390 -25 c 0
 310 -25 234 7 178 63 c 0
 122 119 90 195 90 275 c 0
 90 355 122 431 178 487 c 0
 234 543 310 575 390 575 c 0
 470 575 546 543 602 487 c 0
 658 431 690 355 690 275 c 0
EndSplineSet
EndChar

StartChar: uni2299
Encoding: 106 8857 106
Width: 780
Flags: W
HStem: -25 74<294.554 485.446> 191 168<352.513 427.487> 501 74<294.554 485.446>
VStem: 90 74<179.554 370.446> 306 168<237.513 312.487> 616 74<179.554 370.446>
CounterMasks: 1 fc
LayerCount: 2
Back
Fore
SplineSet
690 275 m 0
 690 195 658 119 602 63 c 0
 546 7 470 -25 390 -25 c 0
 310 -25 234 7 178 63 c 0
 122 119 90 195 90 275 c 0
 90 355 122 431 178 487 c 0
 234 543 310 575 390 575 c 0
 470 575 546 543 602 487 c 0
 658 431 690 355 690 275 c 0
616 275 m 0
 616 335 592 392 550 435 c 0
 507 477 450 501 390 501 c 0
 330 501 273 477 230 435 c 0
 188 392 164 335 164 275 c 0
 164 215 188 158 230 115 c 0
 273 73 330 49 390 49 c 0
 450 49 507 73 550 115 c 0
 592 158 616 215 616 275 c 0
474 275 m 0
 474 258 455 240 440 225 c 0
 425 210 407 191 390 191 c 0
 373 191 355 210 340 225 c 0
 325 240 306 258 306 275 c 0
 306 292 325 310 340 325 c 0
 355 340 373 359 390 359 c 0
 407 359 425 340 440 325 c 0
 455 310 474 292 474 275 c 0
EndSplineSet
EndChar

StartChar: uni229A
Encoding: 107 8858 107
Width: 780
Flags: W
HStem: -25 74<294.554 485.446> 133 74<341.419 438.581> 343 74<341.419 438.581> 501 74<294.554 485.446>
VStem: 90 74<179.554 370.446> 248 74<226.419 323.581> 458 74<226.419 323.581> 616 74<179.554 370.446>
LayerCount: 2
Back
Fore
SplineSet
690 275 m 0
 690 195 658 119 602 63 c 0
 546 7 470 -25 390 -25 c 0
 310 -25 234 7 178 63 c 0
 122 119 90 195 90 275 c 0
 90 355 122 431 178 487 c 0
 234 543 310 575 390 575 c 0
 470 575 546 543 602 487 c 0
 658 431 690 355 690 275 c 0
616 275 m 0
 616 335 592 392 550 435 c 0
 507 477 450 501 390 501 c 0
 330 501 273 477 230 435 c 0
 188 392 164 335 164 275 c 0
 164 215 188 158 230 115 c 0
 273 73 330 49 390 49 c 0
 450 49 507 73 550 115 c 0
 592 158 616 215 616 275 c 0
532 275 m 0
 532 237 517 201 491 174 c 0
 464 148 428 133 390 133 c 0
 352 133 316 148 289 174 c 0
 263 201 248 237 248 275 c 0
 248 313 263 349 289 376 c 0
 316 402 352 417 390 417 c 0
 428 417 464 402 491 376 c 0
 517 349 532 313 532 275 c 0
390 207 m 0
 427 207 458 238 458 275 c 0
 458 312 427 343 390 343 c 0
 353 343 322 312 322 275 c 0
 322 238 353 207 390 207 c 0
EndSplineSet
EndChar

StartChar: uni229B
Encoding: 108 8859 108
Width: 780
Flags: W
VStem: 90 74<204.653 345.347> 616 74<204.653 345.347>
LayerCount: 2
Back
Fore
SplineSet
420 326 m 1
 559 425 l 1
 528 461 482 486 435 496 c 1
 420 326 l 1
360 326 m 1
 345 496 l 1
 298 486 252 461 221 425 c 1
 360 326 l 1
332 275 m 1
 176 347 l 1
 168 324 164 300 164 275 c 0
 164 250 168 226 176 203 c 1
 332 275 l 1
360 224 m 1
 221 125 l 1
 252 89 298 64 345 54 c 1
 360 224 l 1
420 224 m 1
 435 54 l 1
 482 64 528 89 559 125 c 1
 420 224 l 1
448 275 m 1
 604 203 l 1
 612 226 616 250 616 275 c 0
 616 300 612 324 604 347 c 1
 448 275 l 1
690 275 m 0
 690 195 658 119 602 63 c 0
 546 7 470 -25 390 -25 c 0
 310 -25 234 7 178 63 c 0
 122 119 90 195 90 275 c 0
 90 355 122 431 178 487 c 0
 234 543 310 575 390 575 c 0
 470 575 546 543 602 487 c 0
 658 431 690 355 690 275 c 0
EndSplineSet
EndChar

StartChar: uni229D
Encoding: 109 8861 109
Width: 780
Flags: W
HStem: -25 74<294.554 485.446> 238 74<215 565> 501 74<294.554 485.446>
VStem: 90 74<179.554 370.446> 616 74<179.554 370.446>
CounterMasks: 1 e0
LayerCount: 2
Back
Fore
SplineSet
690 275 m 0
 690 195 658 119 602 63 c 0
 546 7 470 -25 390 -25 c 0
 310 -25 234 7 178 63 c 0
 122 119 90 195 90 275 c 0
 90 355 122 431 178 487 c 0
 234 543 310 575 390 575 c 0
 470 575 546 543 602 487 c 0
 658 431 690 355 690 275 c 0
616 275 m 0
 616 335 592 392 550 435 c 0
 507 477 450 501 390 501 c 0
 330 501 273 477 230 435 c 0
 188 392 164 335 164 275 c 0
 164 215 188 158 230 115 c 0
 273 73 330 49 390 49 c 0
 450 49 507 73 550 115 c 0
 592 158 616 215 616 275 c 0
215 238 m 1
 215 312 l 1
 565 312 l 1
 565 238 l 1
 215 238 l 1
EndSplineSet
EndChar

StartChar: uni229C
Encoding: 110 8860 110
Width: 780
Flags: W
HStem: -25 74<294.554 485.446> 161 74<215 565> 315 74<215 565> 501 74<294.554 485.446>
VStem: 90 74<179.554 370.446> 616 74<179.554 370.446>
LayerCount: 2
Back
Fore
SplineSet
690 275 m 0
 690 195 658 119 602 63 c 0
 546 7 470 -25 390 -25 c 0
 310 -25 234 7 178 63 c 0
 122 119 90 195 90 275 c 0
 90 355 122 431 178 487 c 0
 234 543 310 575 390 575 c 0
 470 575 546 543 602 487 c 0
 658 431 690 355 690 275 c 0
616 275 m 0
 616 335 592 392 550 435 c 0
 507 477 450 501 390 501 c 0
 330 501 273 477 230 435 c 0
 188 392 164 335 164 275 c 0
 164 215 188 158 230 115 c 0
 273 73 330 49 390 49 c 0
 450 49 507 73 550 115 c 0
 592 158 616 215 616 275 c 0
215 315 m 1
 215 389 l 1
 565 389 l 1
 565 315 l 1
 215 315 l 1
215 161 m 1
 215 235 l 1
 565 235 l 1
 565 161 l 1
 215 161 l 1
EndSplineSet
EndChar

StartChar: emptyset
Encoding: 111 8709 111
Width: 780
Flags: W
HStem: -25 74<294.357 485.446> 501 74<294.554 485.643>
VStem: 90 74<179.357 370.446> 616 74<179.554 370.643>
LayerCount: 2
Back
Fore
SplineSet
206 143 m 1
 522 459 l 1
 484 486 438 501 390 501 c 0
 330 501 273 477 230 435 c 0
 188 392 164 335 164 275 c 0
 164 227 179 181 206 143 c 1
258 91 m 1
 296 64 342 49 390 49 c 0
 450 49 507 73 550 115 c 0
 592 158 616 215 616 275 c 0
 616 323 601 369 574 407 c 1
 258 91 l 1
638 575 m 1
 690 523 l 1
 626 459 l 1
 667 407 690 343 690 275 c 0
 690 195 658 119 602 63 c 0
 546 7 470 -25 390 -25 c 0
 322 -25 258 -2 206 39 c 1
 142 -25 l 1
 90 27 l 1
 154 91 l 1
 113 143 90 207 90 275 c 0
 90 355 122 431 178 487 c 0
 234 543 310 575 390 575 c 0
 458 575 522 552 574 511 c 1
 638 575 l 1
EndSplineSet
EndChar

StartChar: uni29B0
Encoding: 112 10672 112
Width: 780
Flags: W
HStem: -25 74<294.554 485.643> 501 74<294.357 485.446>
VStem: 90 74<179.554 370.643> 616 74<179.357 370.446>
LayerCount: 2
Back
Fore
SplineSet
522 91 m 1
 206 407 l 1
 179 369 164 323 164 275 c 0
 164 215 188 158 230 115 c 0
 273 73 330 49 390 49 c 0
 438 49 484 64 522 91 c 1
616 275 m 0
 616 335 592 392 550 435 c 0
 507 477 450 501 390 501 c 0
 342 501 296 486 258 459 c 1
 574 143 l 1
 601 181 616 227 616 275 c 0
690 27 m 1
 638 -25 l 1
 574 39 l 1
 522 -2 458 -25 390 -25 c 0
 310 -25 234 7 178 63 c 0
 122 119 90 195 90 275 c 0
 90 343 113 407 154 459 c 1
 90 523 l 1
 142 575 l 1
 206 511 l 1
 258 552 322 575 390 575 c 0
 470 575 546 543 602 487 c 0
 658 431 690 355 690 275 c 0
 690 207 667 143 626 91 c 1
 690 27 l 1
EndSplineSet
EndChar

StartChar: uni25EF
Encoding: 113 9711 113
Width: 1044
Flags: W
HStem: -157 74<401.323 642.677> 633 74<401.323 642.677>
VStem: 90 74<154.323 395.677> 880 74<154.323 395.677>
LayerCount: 2
Back
Fore
SplineSet
954 275 m 0
 954 160 908 51 827 -30 c 0
 746 -111 637 -157 522 -157 c 0
 407 -157 298 -111 217 -30 c 0
 136 51 90 160 90 275 c 0
 90 390 136 499 217 580 c 0
 298 661 407 707 522 707 c 0
 637 707 746 661 827 580 c 0
 908 499 954 390 954 275 c 0
880 275 m 0
 880 370 842 461 775 528 c 0
 708 595 617 633 522 633 c 0
 427 633 336 595 269 528 c 0
 202 461 164 370 164 275 c 0
 164 180 202 89 269 22 c 0
 336 -45 427 -83 522 -83 c 0
 617 -83 708 -45 775 22 c 0
 842 89 880 180 880 275 c 0
EndSplineSet
EndChar

StartChar: uni2B24
Encoding: 114 11044 114
Width: 1044
Flags: W
HStem: -157 864<391.292 652.708>
VStem: 90 864<144.292 405.708>
LayerCount: 2
Back
Fore
SplineSet
954 275 m 0
 954 160 908 51 827 -30 c 0
 746 -111 637 -157 522 -157 c 0
 407 -157 298 -111 217 -30 c 0
 136 51 90 160 90 275 c 0
 90 390 136 499 217 580 c 0
 298 661 407 707 522 707 c 0
 637 707 746 661 827 580 c 0
 908 499 954 390 954 275 c 0
EndSplineSet
EndChar

StartChar: uni25AB
Encoding: 115 9643 115
Width: 519
Flags: W
HStem: 105 74<164 355> 371 74<164 355>
VStem: 90 74<179 371> 355 74<179 371>
LayerCount: 2
Back
Fore
SplineSet
429 445 m 1
 429 105 l 1
 90 105 l 1
 90 445 l 1
 429 445 l 1
355 371 m 1
 164 371 l 1
 164 179 l 1
 355 179 l 1
 355 371 l 1
EndSplineSet
EndChar

StartChar: uni25AA
Encoding: 116 9642 116
Width: 519
Flags: W
HStem: 105 340<90 429>
VStem: 90 339<105 445>
LayerCount: 2
Back
Fore
SplineSet
429 445 m 1
 429 105 l 1
 90 105 l 1
 90 445 l 1
 429 445 l 1
EndSplineSet
EndChar

StartChar: uni25A1
Encoding: 117 9633 117
Width: 710
Flags: W
HStem: 10 74<164 546> 466 74<164 546>
VStem: 90 74<84 466> 546 74<84 466>
LayerCount: 2
Back
Fore
SplineSet
620 540 m 1
 620 10 l 1
 90 10 l 1
 90 540 l 1
 620 540 l 1
546 466 m 1
 164 466 l 1
 164 84 l 1
 546 84 l 1
 546 466 l 1
EndSplineSet
EndChar

StartChar: uni25A0
Encoding: 118 9632 118
Width: 710
Flags: W
HStem: 10 530<90 620>
VStem: 90 530<10 540>
LayerCount: 2
Back
Fore
SplineSet
620 540 m 1
 620 10 l 1
 90 10 l 1
 90 540 l 1
 620 540 l 1
EndSplineSet
EndChar

StartChar: uni229F
Encoding: 119 8863 119
Width: 710
Flags: W
HStem: 10 74<164 546> 238 74<164 546> 466 74<164 546>
VStem: 90 74<84 238 312 466> 546 74<84 238 312 466>
CounterMasks: 1 e0
LayerCount: 2
Back
Fore
SplineSet
546 238 m 1
 164 238 l 1
 164 84 l 1
 546 84 l 1
 546 238 l 1
620 540 m 1
 620 10 l 1
 90 10 l 1
 90 540 l 1
 620 540 l 1
546 466 m 1
 164 466 l 1
 164 312 l 1
 546 312 l 1
 546 466 l 1
EndSplineSet
EndChar

StartChar: uni25EB
Encoding: 120 9707 120
Width: 710
Flags: W
HStem: 10 74<164 318 392 546> 466 74<164 318 392 546>
VStem: 90 74<84 466> 318 74<84 466> 546 74<84 466>
CounterMasks: 1 38
LayerCount: 2
Back
Fore
SplineSet
318 84 m 1
 318 466 l 1
 164 466 l 1
 164 84 l 1
 318 84 l 1
392 84 m 1
 546 84 l 1
 546 466 l 1
 392 466 l 1
 392 84 l 1
620 540 m 1
 620 10 l 1
 90 10 l 1
 90 540 l 1
 620 540 l 1
EndSplineSet
EndChar

StartChar: uni29C4
Encoding: 121 10692 121
Width: 710
Flags: W
HStem: 10 74<216 546> 466 74<164 494>
VStem: 90 74<136 466> 546 74<84 414>
LayerCount: 2
Back
Fore
SplineSet
164 136 m 1
 494 466 l 1
 164 466 l 1
 164 136 l 1
546 414 m 1
 216 84 l 1
 546 84 l 1
 546 414 l 1
620 540 m 1
 620 10 l 1
 90 10 l 1
 90 540 l 1
 620 540 l 1
EndSplineSet
EndChar

StartChar: uni29C5
Encoding: 122 10693 122
Width: 710
Flags: W
HStem: 10 74<164 494> 466 74<216 546>
VStem: 90 74<84 414> 546 74<136 466>
LayerCount: 2
Back
Fore
SplineSet
494 84 m 1
 164 414 l 1
 164 84 l 1
 494 84 l 1
546 136 m 1
 546 466 l 1
 216 466 l 1
 546 136 l 1
620 540 m 1
 620 10 l 1
 90 10 l 1
 90 540 l 1
 620 540 l 1
EndSplineSet
EndChar

StartChar: uni229E
Encoding: 123 8862 123
Width: 710
Flags: W
HStem: 10 74<164 318 392 546> 238 74<164 318 392 546> 466 74<164 318 392 546>
VStem: 90 74<84 238 312 466> 318 74<84 238 312 466> 546 74<84 238 312 466>
CounterMasks: 1 fc
LayerCount: 2
Back
Fore
SplineSet
318 238 m 1
 164 238 l 1
 164 84 l 1
 318 84 l 1
 318 238 l 1
392 238 m 1
 392 84 l 1
 546 84 l 1
 546 238 l 1
 392 238 l 1
318 312 m 1
 318 466 l 1
 164 466 l 1
 164 312 l 1
 318 312 l 1
392 312 m 1
 546 312 l 1
 546 466 l 1
 392 466 l 1
 392 312 l 1
620 540 m 1
 620 10 l 1
 90 10 l 1
 90 540 l 1
 620 540 l 1
EndSplineSet
EndChar

StartChar: uni22A0
Encoding: 124 8864 124
Width: 710
Flags: W
HStem: 10 74<216 494> 466 74<216 494>
VStem: 90 74<136 414> 546 74<136 414>
LayerCount: 2
Back
Fore
SplineSet
355 223 m 1
 216 84 l 1
 494 84 l 1
 355 223 l 1
407 275 m 1
 546 136 l 1
 546 414 l 1
 407 275 l 1
303 275 m 1
 164 414 l 1
 164 136 l 1
 303 275 l 1
355 327 m 1
 494 466 l 1
 216 466 l 1
 355 327 l 1
620 540 m 1
 620 10 l 1
 90 10 l 1
 90 540 l 1
 620 540 l 1
EndSplineSet
EndChar

StartChar: uni22A1
Encoding: 125 8865 125
Width: 710
Flags: W
HStem: 10 74<164 546> 191 168<317.513 393.313> 466 74<164 546>
VStem: 90 74<84 466> 271 168<237.513 312.487> 546 74<84 466>
CounterMasks: 1 fc
LayerCount: 2
Back
Fore
SplineSet
620 540 m 1
 620 10 l 1
 90 10 l 1
 90 540 l 1
 620 540 l 1
546 466 m 1
 164 466 l 1
 164 84 l 1
 546 84 l 1
 546 466 l 1
439 275 m 0
 439 258 421 240 406 225 c 0
 391 210 372 191 355 191 c 0
 338 191 320 210 305 225 c 0
 290 240 271 258 271 275 c 0
 271 292 290 310 305 325 c 0
 320 340 338 359 355 359 c 0
 372 359 391 340 406 325 c 0
 421 310 439 292 439 275 c 0
EndSplineSet
EndChar

StartChar: uni29C8
Encoding: 126 10696 126
Width: 710
Flags: W
HStem: 10 74<164 546> 154 59<294 417> 337 59<294 417> 466 74<164 546>
VStem: 90 74<84 466> 234 60<213 337> 417 59<213 337> 546 74<84 466>
LayerCount: 2
Back
Fore
SplineSet
620 540 m 1
 620 10 l 1
 90 10 l 1
 90 540 l 1
 620 540 l 1
546 466 m 1
 164 466 l 1
 164 84 l 1
 546 84 l 1
 546 466 l 1
476 396 m 1
 476 154 l 1
 234 154 l 1
 234 396 l 1
 476 396 l 1
417 337 m 1
 294 337 l 1
 294 213 l 1
 417 213 l 1
 417 337 l 1
EndSplineSet
EndChar

StartChar: uni2B1C
Encoding: 127 11036 127
Width: 944
Flags: W
HStem: -107 74<164 780> 583 74<164 780>
VStem: 90 74<-33 583> 780 74<-33 583>
LayerCount: 2
Back
Fore
SplineSet
854 657 m 1
 854 -107 l 1
 90 -107 l 1
 90 657 l 1
 854 657 l 1
780 583 m 1
 164 583 l 1
 164 -33 l 1
 780 -33 l 1
 780 583 l 1
EndSplineSet
EndChar

StartChar: uni2B1B
Encoding: 128 11035 128
Width: 944
Flags: W
HStem: -107 764<90 854>
VStem: 90 764<-107 657>
LayerCount: 2
Back
Fore
SplineSet
854 657 m 1
 854 -107 l 1
 90 -107 l 1
 90 657 l 1
 854 657 l 1
EndSplineSet
EndChar

StartChar: uni22C4
Encoding: 129 8900 129
Width: 660
Flags: W
LayerCount: 2
Back
Fore
SplineSet
330 530 m 1
 585 275 l 1
 330 20 l 1
 75 275 l 1
 330 530 l 1
330 426 m 1
 179 275 l 1
 330 124 l 1
 481 275 l 1
 330 426 l 1
EndSplineSet
EndChar

StartChar: uni2B29
Encoding: 130 11049 130
Width: 660
Flags: W
LayerCount: 2
Back
Fore
SplineSet
330 530 m 1
 585 275 l 1
 330 20 l 1
 75 275 l 1
 330 530 l 1
EndSplineSet
EndChar

StartChar: uni25C7
Encoding: 131 9671 131
Width: 930
Flags: W
LayerCount: 2
Back
Fore
SplineSet
465 665 m 1
 855 275 l 1
 465 -115 l 1
 75 275 l 1
 465 665 l 1
465 561 m 1
 179 275 l 1
 465 -11 l 1
 751 275 l 1
 465 561 l 1
EndSplineSet
EndChar

StartChar: uni25C6
Encoding: 132 9670 132
Width: 930
Flags: W
LayerCount: 2
Back
Fore
SplineSet
465 665 m 1
 855 275 l 1
 465 -115 l 1
 75 275 l 1
 465 665 l 1
EndSplineSet
EndChar

StartChar: sym011
Encoding: 133 -1 133
Width: 930
Flags: W
HStem: 238 74<216 714>
LayerCount: 2
Back
Fore
SplineSet
714 238 m 1
 216 238 l 1
 465 -11 l 1
 714 238 l 1
714 312 m 1
 465 561 l 1
 216 312 l 1
 714 312 l 1
465 665 m 1
 855 275 l 1
 465 -115 l 1
 75 275 l 1
 465 665 l 1
EndSplineSet
EndChar

StartChar: sym012
Encoding: 134 -1 134
Width: 930
Flags: W
VStem: 428 74<26 524>
LayerCount: 2
Back
Fore
SplineSet
428 26 m 1
 428 524 l 1
 179 275 l 1
 428 26 l 1
502 524 m 1
 502 26 l 1
 751 275 l 1
 502 524 l 1
465 665 m 1
 855 275 l 1
 465 -115 l 1
 75 275 l 1
 465 665 l 1
EndSplineSet
EndChar

StartChar: sym013
Encoding: 135 -1 135
Width: 930
Flags: W
LayerCount: 2
Back
Fore
SplineSet
634 392 m 1
 348 106 l 1
 465 -11 l 1
 751 275 l 1
 634 392 l 1
465 665 m 1
 855 275 l 1
 465 -115 l 1
 75 275 l 1
 465 665 l 1
465 561 m 1
 179 275 l 1
 296 158 l 1
 582 444 l 1
 465 561 l 1
EndSplineSet
EndChar

StartChar: sym014
Encoding: 136 -1 136
Width: 930
Flags: W
LayerCount: 2
Back
Fore
SplineSet
582 106 m 1
 296 392 l 1
 179 275 l 1
 465 -11 l 1
 582 106 l 1
634 158 m 1
 751 275 l 1
 465 561 l 1
 348 444 l 1
 634 158 l 1
465 665 m 1
 855 275 l 1
 465 -115 l 1
 75 275 l 1
 465 665 l 1
EndSplineSet
EndChar

StartChar: sym015
Encoding: 137 -1 137
Width: 930
Flags: W
HStem: 238 74<216 428 502 714>
VStem: 428 74<26 238 312 524>
LayerCount: 2
Back
Fore
SplineSet
428 238 m 1
 216 238 l 1
 428 26 l 1
 428 238 l 1
502 238 m 1
 502 26 l 1
 714 238 l 1
 502 238 l 1
428 312 m 1
 428 524 l 1
 216 312 l 1
 428 312 l 1
502 312 m 1
 714 312 l 1
 502 524 l 1
 502 312 l 1
465 665 m 1
 855 275 l 1
 465 -115 l 1
 75 275 l 1
 465 665 l 1
EndSplineSet
EndChar

StartChar: sym016
Encoding: 138 -1 138
Width: 930
Flags: W
LayerCount: 2
Back
Fore
SplineSet
465 223 m 1
 348 106 l 1
 465 -11 l 1
 582 106 l 1
 465 223 l 1
517 275 m 1
 634 158 l 1
 751 275 l 1
 634 392 l 1
 517 275 l 1
413 275 m 1
 296 392 l 1
 179 275 l 1
 296 158 l 1
 413 275 l 1
465 327 m 1
 582 444 l 1
 465 561 l 1
 348 444 l 1
 465 327 l 1
465 665 m 1
 855 275 l 1
 465 -115 l 1
 75 275 l 1
 465 665 l 1
EndSplineSet
EndChar

StartChar: uni27D0
Encoding: 139 10192 139
Width: 930
Flags: W
HStem: 191 168<427.513 502.487>
VStem: 381 168<237.513 312.487>
LayerCount: 2
Back
Fore
SplineSet
465 665 m 1
 855 275 l 1
 465 -115 l 1
 75 275 l 1
 465 665 l 1
465 561 m 1
 179 275 l 1
 465 -11 l 1
 751 275 l 1
 465 561 l 1
549 275 m 0
 549 258 530 240 515 225 c 0
 500 210 482 191 465 191 c 0
 448 191 430 210 415 225 c 0
 400 240 381 258 381 275 c 0
 381 292 400 310 415 325 c 0
 430 340 448 359 465 359 c 0
 482 359 500 340 515 325 c 0
 530 310 549 292 549 275 c 0
EndSplineSet
EndChar

StartChar: sym017
Encoding: 140 -1 140
Width: 930
Flags: W
LayerCount: 2
Back
Fore
SplineSet
465 665 m 1
 855 275 l 1
 465 -115 l 1
 75 275 l 1
 465 665 l 1
465 561 m 1
 179 275 l 1
 465 -11 l 1
 751 275 l 1
 465 561 l 1
465 452 m 1
 642 275 l 1
 465 98 l 1
 288 275 l 1
 465 452 l 1
465 368 m 1
 372 275 l 1
 465 182 l 1
 558 275 l 1
 465 368 l 1
EndSplineSet
EndChar

StartChar: uni2B2B
Encoding: 141 11051 141
Width: 580
Flags: W
LayerCount: 2
Back
Fore
SplineSet
90 275 m 1
 290 595 l 1
 490 275 l 1
 290 -45 l 1
 90 275 l 1
177 275 m 1
 290 95 l 1
 403 275 l 1
 290 455 l 1
 177 275 l 1
EndSplineSet
EndChar

StartChar: uni2B2A
Encoding: 142 11050 142
Width: 580
Flags: W
LayerCount: 2
Back
Fore
SplineSet
90 275 m 1
 290 595 l 1
 490 275 l 1
 290 -45 l 1
 90 275 l 1
EndSplineSet
EndChar

StartChar: lozenge
Encoding: 143 9674 143
Width: 710
Flags: W
LayerCount: 2
Back
Fore
SplineSet
90 275 m 1
 355 699 l 1
 620 275 l 1
 355 -149 l 1
 90 275 l 1
177 275 m 1
 355 -10 l 1
 533 275 l 1
 355 560 l 1
 177 275 l 1
EndSplineSet
EndChar

StartChar: uni29EB
Encoding: 144 10731 144
Width: 710
Flags: W
LayerCount: 2
Back
Fore
SplineSet
90 275 m 1
 355 699 l 1
 620 275 l 1
 355 -149 l 1
 90 275 l 1
EndSplineSet
EndChar

StartChar: uni27E0
Encoding: 145 10208 145
Width: 710
Flags: W
HStem: 238 74<200 510>
LayerCount: 2
Back
Fore
SplineSet
510 238 m 1
 200 238 l 1
 355 -10 l 1
 510 238 l 1
200 312 m 1
 510 312 l 1
 355 560 l 1
 200 312 l 1
90 275 m 1
 355 699 l 1
 620 275 l 1
 355 -149 l 1
 90 275 l 1
EndSplineSet
EndChar

StartChar: uni2B52
Encoding: 146 11090 146
Width: 780
Flags: W
HStem: 295 58<241 311 469 539>
LayerCount: 2
Back
Fore
SplineSet
390 581 m 1
 469 353 l 1
 711 349 l 1
 518 203 l 1
 588 -28 l 1
 390 110 l 1
 192 -28 l 1
 262 203 l 1
 69 349 l 1
 311 353 l 1
 390 581 l 1
390 401 m 1
 353 295 l 1
 241 293 l 1
 330 225 l 1
 298 118 l 1
 390 182 l 1
 482 118 l 1
 450 225 l 1
 539 293 l 1
 427 295 l 1
 390 401 l 1
EndSplineSet
EndChar

StartChar: uni22C6
Encoding: 147 8902 147
Width: 660
Flags: W
LayerCount: 2
Back
Fore
SplineSet
330 527 m 1
 395 339 l 1
 593 335 l 1
 435 216 l 1
 493 26 l 1
 330 139 l 1
 167 26 l 1
 225 216 l 1
 67 335 l 1
 265 339 l 1
 330 527 l 1
EndSplineSet
EndChar

StartChar: uni2B50
Encoding: 148 11088 148
Width: 930
Flags: W
HStem: 298 73<288 368 562 642>
LayerCount: 2
Back
Fore
SplineSet
465 650 m 1
 562 371 l 1
 857 365 l 1
 622 187 l 1
 707 -96 l 1
 465 73 l 1
 223 -96 l 1
 308 187 l 1
 73 365 l 1
 368 371 l 1
 465 650 l 1
465 424 m 1
 421 298 l 1
 288 295 l 1
 394 214 l 1
 355 87 l 1
 465 163 l 1
 575 87 l 1
 536 214 l 1
 642 295 l 1
 509 298 l 1
 465 424 l 1
EndSplineSet
EndChar

StartChar: uni2B51
Encoding: 149 11089 149
Width: 930
Flags: W
LayerCount: 2
Back
Fore
SplineSet
465 650 m 1
 562 371 l 1
 857 365 l 1
 622 187 l 1
 707 -96 l 1
 465 73 l 1
 223 -96 l 1
 308 187 l 1
 73 365 l 1
 368 371 l 1
 465 650 l 1
EndSplineSet
EndChar

StartChar: uni2606
Encoding: 150 9734 150
Width: 1260
Flags: W
HStem: 331 70<296 442.375 817.625 964> 336 73<296 494 766 964>
LayerCount: 2
Back
Fore
SplineSet
630 800 m 1x40
 766 409 l 1x40
 1179 401 l 1
 850 151 l 1
 969 -244 l 1
 630 -8 l 1
 291 -244 l 1
 411 151 l 1
 81 401 l 1x80
 494 409 l 1
 630 800 l 1x40
630 574 m 1
 547 336 l 1x40
 296 331 l 1
 496 179 l 1
 423 -62 l 1
 630 82 l 1
 837 -62 l 1
 764 179 l 1
 964 331 l 1x80
 713 336 l 1
 630 574 l 1
EndSplineSet
EndChar

StartChar: uni2605
Encoding: 151 9733 151
Width: 1260
Flags: W
LayerCount: 2
Back
Fore
SplineSet
630 800 m 1
 766 409 l 1
 1179 401 l 1
 850 151 l 1
 969 -244 l 1
 630 -8 l 1
 291 -244 l 1
 411 151 l 1
 81 401 l 1
 494 409 l 1
 630 800 l 1
EndSplineSet
EndChar

StartChar: asteriskmath
Encoding: 152 8727 152
Width: 660
Flags: W
LayerCount: 2
Back
Fore
SplineSet
389 275 m 1
 563 198 l 1
 513 112 l 1
 360 223 l 1
 379 35 l 1
 281 35 l 1
 300 223 l 1
 147 112 l 1
 97 198 l 1
 271 275 l 1
 97 352 l 1
 147 438 l 1
 300 327 l 1
 281 515 l 1
 379 515 l 1
 360 327 l 1
 513 438 l 1
 563 352 l 1
 389 275 l 1
EndSplineSet
EndChar

StartChar: infinity
Encoding: 153 8734 153
Width: 1044
Flags: W
HStem: 46 74<222.942 352.802 691.198 821.058> 430 74<222.942 352.802 691.198 821.058>
VStem: 90 74<186.42 363.58> 880 74<186.42 363.58>
LayerCount: 2
Back
Fore
SplineSet
571 275 m 1
 627 207 671 120 759 120 c 0
 833 120 880 195 880 275 c 0
 880 355 833 430 759 430 c 0
 671 430 627 343 571 275 c 1
522 329 m 1
 592 409 654 504 759 504 c 0
 874 504 954 396 954 275 c 0
 954 154 874 46 759 46 c 0
 654 46 592 141 522 221 c 1
 452 141 390 46 285 46 c 0
 170 46 90 154 90 275 c 0
 90 396 170 504 285 504 c 0
 390 504 452 409 522 329 c 1
473 275 m 1
 417 343 373 430 285 430 c 0
 211 430 164 355 164 275 c 0
 164 195 211 120 285 120 c 0
 373 120 417 207 473 275 c 1
EndSplineSet
EndChar

StartChar: proportional
Encoding: 154 8733 154
Width: 948
Flags: W
HStem: 46 74<225.623 355.568 698.625 858> 430 74<225.623 355.568 698.625 858>
VStem: 90 74<187.724 362.276>
LayerCount: 2
Back
Fore
SplineSet
472 275 m 1
 416 342 376 430 289 430 c 0
 213 430 164 356 164 275 c 0
 164 194 213 120 289 120 c 0
 376 120 416 208 472 275 c 1
858 504 m 1
 858 430 l 1
 773 430 l 2
 682 430 632 345 572 275 c 1
 632 205 682 120 773 120 c 2
 858 120 l 1
 858 46 l 1
 773 46 l 2
 665 46 596 140 522 221 c 1
 452 142 393 46 289 46 c 0
 173 46 90 154 90 275 c 0
 90 396 173 504 289 504 c 0
 393 504 452 408 522 329 c 1
 596 410 665 504 773 504 c 2
 858 504 l 1
EndSplineSet
EndChar

StartChar: sym018
Encoding: 155 -1 155
Width: 948
Flags: W
HStem: 46 74<90 249.375 593.036 722.797> 430 74<90 249.375 593.036 722.797>
VStem: 784 74<187.724 362.276>
LayerCount: 2
Back
Fore
SplineSet
476 275 m 1
 532 208 572 120 660 120 c 0
 735 120 784 194 784 275 c 0
 784 356 735 430 660 430 c 0
 572 430 532 342 476 275 c 1
90 46 m 1
 90 120 l 1
 175 120 l 2
 266 120 316 205 376 275 c 1
 316 345 266 430 175 430 c 2
 90 430 l 1
 90 504 l 1
 175 504 l 2
 283 504 352 410 426 329 c 1
 496 408 556 504 660 504 c 0
 775 504 858 396 858 275 c 0
 858 154 775 46 660 46 c 0
 556 46 496 142 426 221 c 1
 352 140 283 46 175 46 c 2
 90 46 l 1
EndSplineSet
EndChar

StartChar: sym019
Encoding: 156 -1 156
Width: 852
Flags: W
HStem: 46 74<90 249.375 602.625 762> 430 74<90 249.375 602.625 762>
LayerCount: 2
Back
Fore
SplineSet
90 504 m 1
 175 504 l 2
 283 504 352 409 426 328 c 1
 500 409 569 504 677 504 c 2
 762 504 l 1
 762 430 l 1
 677 430 l 2
 586 430 536 345 476 275 c 1
 536 205 586 120 677 120 c 2
 762 120 l 1
 762 46 l 1
 677 46 l 2
 569 46 500 141 426 222 c 1
 352 141 283 46 175 46 c 2
 90 46 l 1
 90 120 l 1
 175 120 l 2
 266 120 316 205 376 275 c 1
 316 345 266 430 175 430 c 2
 90 430 l 1
 90 504 l 1
EndSplineSet
EndChar

StartChar: uni226C
Encoding: 157 8812 157
Width: 447
Flags: W
VStem: 90 74<158.725 391.275> 282 75<158.522 391.478>
LayerCount: 2
Back
Fore
SplineSet
223 464 m 1
 186 407 164 344 164 275 c 0
 164 206 186 143 223 86 c 1
 260 143 282 206 282 275 c 0
 282 344 260 407 223 464 c 1
342 -42 m 1
 297 -100 l 1
 271 -80 247 -57 224 -33 c 1
 201 -57 176 -80 150 -100 c 1
 104 -42 l 1
 130 -22 154 1 176 25 c 1
 123 99 90 183 90 275 c 0
 90 367 123 451 176 525 c 1
 154 549 130 572 104 592 c 1
 150 650 l 1
 176 630 201 607 224 583 c 1
 247 607 271 630 297 650 c 1
 342 592 l 1
 316 572 293 550 271 526 c 1
 324 452 357 367 357 275 c 0
 357 183 324 98 271 24 c 1
 293 0 316 -22 342 -42 c 1
EndSplineSet
EndChar

StartChar: uni22BA
Encoding: 158 8890 158
Width: 565
Flags: W
HStem: -220 21G<245 320> 472 74<90 245 320 475>
VStem: 245 75<-220 472>
LayerCount: 2
Back
Fore
SplineSet
320 -220 m 1
 245 -220 l 1
 245 472 l 1
 90 472 l 1
 90 546 l 1
 475 546 l 1
 475 472 l 1
 320 472 l 1
 320 -220 l 1
EndSplineSet
EndChar

StartChar: uni2240
Encoding: 159 8768 159
Width: 382
Flags: W
HStem: 525 20G<173.979 215>
VStem: 90 74<96.5014 211.889> 218 74<338.111 453.499>
LayerCount: 2
Back
Fore
SplineSet
151 498 m 1
 191 545 l 1
 239 504 292 460 292 398 c 0
 292 340 258 290 217 249 c 0
 190 222 164 191 164 152 c 0
 164 110 198 80 231 52 c 1
 191 5 l 1
 143 46 90 90 90 152 c 0
 90 210 124 260 165 301 c 0
 192 328 218 359 218 398 c 0
 218 440 184 470 151 498 c 1
EndSplineSet
EndChar

StartChar: angle
Encoding: 160 8736 160
Width: 720
Flags: W
HStem: 5 74<174 630>
LayerCount: 2
Back
Fore
SplineSet
630 79 m 1
 630 5 l 1
 96 5 l 1
 74 79 l 1
 495 541 l 1
 549 491 l 1
 174 79 l 1
 630 79 l 1
EndSplineSet
EndChar

StartChar: uni29A3
Encoding: 161 10659 161
Width: 720
Flags: W
HStem: 5 74<90 546>
LayerCount: 2
Back
Fore
SplineSet
90 79 m 1
 546 79 l 1
 171 491 l 1
 225 541 l 1
 646 79 l 1
 624 5 l 1
 90 5 l 1
 90 79 l 1
EndSplineSet
EndChar

StartChar: uni2221
Encoding: 162 8737 162
Width: 720
Flags: W
HStem: 5 74<174 411 482.633 630>
VStem: 411 74<79 161.365>
LayerCount: 2
Back
Fore
SplineSet
411 79 m 1
 404 144 376 205 333 254 c 1
 174 79 l 1
 411 79 l 1
630 79 m 1
 630 5 l 1
 96 5 l 1
 74 79 l 1
 495 541 l 1
 549 491 l 1
 384 309 l 1
 442 245 477 165 485 79 c 1
 630 79 l 1
EndSplineSet
EndChar

StartChar: uni299B
Encoding: 163 10651 163
Width: 720
Flags: W
HStem: 5 74<90 237.367 309 546>
VStem: 235 74<79 161.365>
LayerCount: 2
Back
Fore
SplineSet
387 254 m 1
 344 205 316 144 309 79 c 1
 546 79 l 1
 387 254 l 1
336 309 m 1
 171 491 l 1
 225 541 l 1
 646 79 l 1
 624 5 l 1
 90 5 l 1
 90 79 l 1
 235 79 l 1
 243 165 278 245 336 309 c 1
EndSplineSet
EndChar

StartChar: uni2222
Encoding: 164 8738 164
Width: 720
Flags: W
VStem: 462 74<176.912 373.088>
LayerCount: 2
Back
Fore
SplineSet
438 172 m 1
 455 204 462 240 462 275 c 0
 462 310 455 346 438 378 c 1
 215 275 l 1
 438 172 l 1
599 534 m 1
 630 467 l 1
 505 409 l 1
 526 367 536 321 536 275 c 0
 536 229 526 183 505 141 c 1
 630 83 l 1
 599 16 l 1
 90 251 l 1
 90 299 l 1
 599 534 l 1
EndSplineSet
EndChar

StartChar: uni29A1
Encoding: 165 10657 165
Width: 720
Flags: W
HStem: 378 73<263.702 456.298> 525 20G<124.774 177.28 542.72 595.226>
LayerCount: 2
Back
Fore
SplineSet
463 353 m 1
 431 370 395 378 360 378 c 0
 325 378 289 370 257 353 c 1
 360 130 l 1
 463 353 l 1
101 514 m 1
 168 545 l 1
 226 420 l 1
 268 441 314 451 360 451 c 0
 406 451 452 441 494 420 c 1
 552 545 l 1
 619 514 l 1
 384 5 l 1
 336 5 l 1
 101 514 l 1
EndSplineSet
EndChar

StartChar: uni29A0
Encoding: 166 10656 166
Width: 720
Flags: W
VStem: 184 74<176.912 373.088>
LayerCount: 2
Back
Fore
SplineSet
282 378 m 1
 265 346 258 310 258 275 c 0
 258 240 265 204 282 172 c 1
 505 275 l 1
 282 378 l 1
121 16 m 1
 90 83 l 1
 215 141 l 1
 194 183 184 229 184 275 c 0
 184 321 194 367 215 409 c 1
 90 467 l 1
 121 534 l 1
 630 299 l 1
 630 251 l 1
 121 16 l 1
EndSplineSet
EndChar

StartChar: sym01A
Encoding: 167 -1 167
Width: 720
Flags: W
HStem: 99 73<263.702 456.298> 525 20G<326.766 393.234>
LayerCount: 2
Back
Fore
SplineSet
257 197 m 1
 289 180 325 172 360 172 c 0
 395 172 431 180 463 197 c 1
 360 420 l 1
 257 197 l 1
619 36 m 1
 552 5 l 1
 494 130 l 1
 452 109 406 99 360 99 c 0
 314 99 268 109 226 130 c 1
 168 5 l 1
 101 36 l 1
 336 545 l 1
 384 545 l 1
 619 36 l 1
EndSplineSet
EndChar

StartChar: uni221F
Encoding: 168 8735 168
Width: 720
Flags: W
HStem: 5 74<164 630> 525 20G<90 164>
VStem: 90 74<79 545>
LayerCount: 2
Back
Fore
SplineSet
90 545 m 1
 164 545 l 1
 164 79 l 1
 630 79 l 1
 630 5 l 1
 450 5 270 5 90 5 c 1
 90 185 90 365 90 545 c 1
EndSplineSet
EndChar

StartChar: uni22BE
Encoding: 169 8894 169
Width: 720
Flags: W
HStem: 5 74<164 370 444 630> 285 74<164 253.409> 525 20G<90 164>
VStem: 90 74<79 285 359 545> 370 74<79 168.409>
LayerCount: 2
Back
Fore
SplineSet
370 79 m 1
 370 193 278 285 164 285 c 1
 164 79 l 1
 370 79 l 1
90 545 m 1
 164 545 l 1
 164 359 l 1
 318 359 444 233 444 79 c 1
 630 79 l 1
 630 5 l 1
 450 5 270 5 90 5 c 1
 90 185 90 365 90 545 c 1
EndSplineSet
EndChar

StartChar: uni299C
Encoding: 170 10652 170
Width: 720
Flags: W
HStem: 5 74<164 323 397 630> 238 74<164 323> 525 20G<90 164>
VStem: 90 74<79 238 312 545> 323 74<79 238>
LayerCount: 2
Back
Fore
SplineSet
323 238 m 1
 164 238 l 1
 164 79 l 1
 323 79 l 1
 323 238 l 1
90 545 m 1
 164 545 l 1
 164 312 l 1
 242 312 319 312 397 312 c 1
 397 234 397 157 397 79 c 1
 630 79 l 1
 630 5 l 1
 450 5 270 5 90 5 c 1
 90 185 90 365 90 545 c 1
EndSplineSet
EndChar

StartChar: uni299D
Encoding: 171 10653 171
Width: 720
Flags: W
HStem: 5 74<164 370 444 630> 116 84<213.579 273.528> 285 74<164 253.409> 525 20G<90 164>
VStem: 90 74<79 285 359 545> 202 84<128.472 188.421> 370 74<79 168.409>
LayerCount: 2
Back
Fore
SplineSet
370 79 m 1
 370 193 278 285 164 285 c 1
 164 79 l 1
 370 79 l 1
90 545 m 1
 164 545 l 1
 164 359 l 1
 318 359 444 233 444 79 c 1
 630 79 l 1
 630 5 l 1
 450 5 270 5 90 5 c 1
 90 185 90 365 90 545 c 1
286 158 m 0
 286 150 276 141 269 133 c 0
 261 126 252 116 244 116 c 0
 235 116 226 126 218 133 c 0
 211 141 202 150 202 158 c 0
 202 167 211 176 218 184 c 0
 226 191 235 200 244 200 c 0
 252 200 261 191 269 184 c 0
 276 176 286 167 286 158 c 0
EndSplineSet
EndChar

StartChar: minute
Encoding: 172 8242 172
Width: 254
Flags: W
VStem: 60 194
LayerCount: 2
Back
Fore
SplineSet
254 603 m 1
 159 67 l 1
 60 67 l 1
 120 603 l 1
 254 603 l 1
EndSplineSet
EndChar

StartChar: uni2035
Encoding: 173 8245 173
Width: 254
Flags: W
VStem: 0 194
LayerCount: 2
Back
Fore
SplineSet
0 603 m 1
 134 603 l 1
 194 67 l 1
 95 67 l 1
 0 603 l 1
EndSplineSet
EndChar

StartChar: product.small
Encoding: 174 -1 174
Width: 720
Flags: W
HStem: 5 46<98 146.436 257.564 306 414 462.436 573.564 622> 471 74<253 467> 499 46<92 146.681 573.319 628>
VStem: 151 102<63.0342 470.743> 467 102<63.0342 470.743>
LayerCount: 2
Back
Fore
SplineSet
98 5 m 1xd8
 90 51 l 1
 116 58 151 67 151 82 c 2
 151 468 l 2
 151 483 118 492 92 499 c 1
 90 545 l 1
 630 545 l 1
 628 499 l 1xb8
 602 492 569 483 569 468 c 2
 569 82 l 2
 569 67 604 58 630 51 c 1
 622 5 l 1
 414 5 l 1
 406 51 l 1
 432 58 467 67 467 82 c 2
 467 471 l 1
 253 471 l 1
 253 82 l 2
 253 67 288 58 314 51 c 1
 306 5 l 1
 98 5 l 1xd8
EndSplineSet
EndChar

StartChar: product.sf.small
Encoding: 175 -1 175
Width: 720
Flags: W
HStem: 446 99<90 155 254 466 565 630>
VStem: 155 99<5 446> 466 99<5 446>
LayerCount: 2
Back
Fore
SplineSet
155 5 m 1
 155 446 l 1
 90 446 l 1
 90 545 l 1
 630 545 l 1
 630 446 l 1
 565 446 l 1
 565 5 l 1
 466 5 l 1
 466 446 l 1
 254 446 l 1
 254 5 l 1
 155 5 l 1
EndSplineSet
EndChar

StartChar: uni2A3F
Encoding: 176 10815 176
Width: 720
Flags: W
HStem: 5 74<253 467> 5 46<92 146.681 573.319 628> 499 46<98 146.436 257.564 306 414 462.436 573.564 622>
VStem: 151 102<79.2568 486.966> 467 102<79.2568 486.966>
LayerCount: 2
Back
Fore
SplineSet
98 545 m 1x78
 306 545 l 1
 314 499 l 1
 288 492 253 483 253 468 c 2
 253 79 l 1
 467 79 l 1xb8
 467 468 l 2
 467 483 432 492 406 499 c 1
 414 545 l 1
 622 545 l 1
 630 499 l 1
 604 492 569 483 569 468 c 2
 569 82 l 2
 569 67 602 58 628 51 c 1
 630 5 l 1
 90 5 l 1
 92 51 l 1
 118 58 151 67 151 82 c 2
 151 468 l 2
 151 483 116 492 90 499 c 1
 98 545 l 1x78
EndSplineSet
EndChar

StartChar: uni2A3F.sf
Encoding: 177 -1 177
Width: 720
Flags: W
HStem: 5 99<90 155 254 466 565 630> 525 20G<155 254 466 565>
VStem: 155 99<104 545> 466 99<104 545>
LayerCount: 2
Back
Fore
SplineSet
155 545 m 1
 254 545 l 1
 254 104 l 1
 466 104 l 1
 466 545 l 1
 565 545 l 1
 565 104 l 1
 630 104 l 1
 630 5 l 1
 90 5 l 1
 90 104 l 1
 155 104 l 1
 155 545 l 1
EndSplineSet
EndChar

StartChar: integral.small
Encoding: 178 -1 178
Width: 482
Flags: W
HStem: 0 82<129 179.424> 674 80<297.921 352.484>
VStem: 191 99<88.3712 670.781>
LayerCount: 2
Back
Fore
SplineSet
374 748 m 1
 353 667 l 1
 342 671 331 674 320 674 c 0
 291 674 290 636 290 602 c 2
 290 157 l 2
 290 69 219 0 133 -0 c 0
 132 0 130 0 129 0 c 1
 117 82 l 1
 151 82 l 2
 182 82 191 121 191 157 c 2
 191 602 l 2
 191 685 254 754 334 754 c 0
 336 754 339 754 341 754 c 0
 352 754 364 751 374 748 c 1
EndSplineSet
EndChar

StartChar: uni2713
Encoding: 179 10003 179
Width: 914
Flags: W
HStem: 0 21G<221.56 369> 734 20G<801 823.333>
LayerCount: 2
Back
Fore
SplineSet
90 250 m 1
 175 300 l 1
 281 114 l 1
 395 345 514 578 712 743 c 0
 724 754 782 754 820 754 c 1
 824 730 l 1
 801 718 779 703 759 687 c 0
 546 508 431 248 307 0 c 1
 233 0 l 1
 90 250 l 1
EndSplineSet
EndChar

StartChar: uni21AF
Encoding: 180 8623 180
Width: 614
Flags: W
HStem: 530 20G<449.246 514.807>
LayerCount: 2
Back
Fore
SplineSet
186 -106 m 1
 99 86 l 1
 167 117 l 1
 202 39 l 1
 349 426 l 1
 150 373 l 1
 378 942 l 1
 482 905 l 1
 296 489 l 1
 524 550 l 1
 279 17 l 1
 348 48 l 1
 379 -20 l 1
 186 -106 l 1
EndSplineSet
EndChar

StartChar: uni2662
Encoding: 181 9826 181
Width: 780
Flags: W
HStem: 0 21G<345 435> 687 20G<345 435>
LayerCount: 2
Back
Fore
SplineSet
390 0 m 1
 300 126 200 245 90 354 c 1
 200 462 300 581 390 707 c 1
 480 581 580 462 690 354 c 1
 580 245 480 126 390 0 c 1
390 114 m 1
 451 200 518 280 593 354 c 1
 518 427 451 507 390 593 c 1
 329 507 262 427 187 354 c 1
 262 280 329 200 390 114 c 1
EndSplineSet
EndChar

StartChar: diamond
Encoding: 182 9830 182
Width: 780
Flags: W
HStem: 0 21G<345 435> 687 20G<345 435>
LayerCount: 2
Back
Fore
SplineSet
390 0 m 1
 300 126 200 245 90 354 c 1
 200 462 300 581 390 707 c 1
 480 581 580 462 690 354 c 1
 580 245 480 126 390 0 c 1
EndSplineSet
EndChar

StartChar: uni2661
Encoding: 183 9825 183
Width: 840
Flags: W
HStem: 0 21G<358.5 481.5> 687 20G<212.5 292 548 627.5>
VStem: 90 660<415.219 614.034>
LayerCount: 2
Back
Fore
SplineSet
420 0 m 1
 297 176 90 312 90 530 c 0
 90 627 165 707 260 707 c 0
 324 707 375 664 420 619 c 1
 465 664 516 707 580 707 c 0
 675 707 750 627 750 530 c 0
 750 312 543 176 420 0 c 1
EndSplineSet
EndChar

StartChar: heart
Encoding: 184 9829 184
Width: 840
Flags: W
HStem: 0 21G<358.5 481.5> 687 20G<212.5 292 548 627.5>
VStem: 90 660<415.219 614.034>
LayerCount: 2
Back
Fore
SplineSet
420 0 m 1
 297 176 90 312 90 530 c 0
 90 627 165 707 260 707 c 0
 324 707 375 664 420 619 c 1
 465 664 516 707 580 707 c 0
 675 707 750 627 750 530 c 0
 750 312 543 176 420 0 c 1
EndSplineSet
EndChar

StartChar: spade
Encoding: 185 9824 185
Width: 780
Flags: W
HStem: 0 21G<300 480> 687 20G<345.5 434.5>
VStem: 89 602<194.534 376.681>
LayerCount: 2
Back
Fore
SplineSet
552 117 m 0
 505 117 471 142 450 178 c 1
 480 0 l 1
 300 0 l 1
 330 178 l 1
 309 142 275 117 228 117 c 0
 148 117 89 193 89 284 c 0
 89 464 301 553 390 707 c 1
 479 553 691 464 691 284 c 0
 691 193 631 117 552 117 c 0
EndSplineSet
EndChar

StartChar: club
Encoding: 186 9827 186
Width: 840
Flags: W
HStem: 0 21G<330 510> 687 20G<398 442>
VStem: 90 660<216.294 375.497> 255 330<459.358 623.497>
LayerCount: 2
Back
Fore
SplineSet
255 129 m 0xd0
 165 129 90 205 90 294 c 0xe0
 90 338 107 380 138 411 c 0
 169 442 211 459 255 459 c 0
 263 459 270 458 278 457 c 1
 263 482 255 512 255 542 c 0
 255 586 272 628 303 659 c 0
 334 690 376 707 420 707 c 0
 464 707 506 690 537 659 c 0
 568 628 585 586 585 542 c 0
 585 512 577 482 562 457 c 1
 570 458 577 459 585 459 c 0xd0
 629 459 671 442 702 411 c 0
 733 380 750 338 750 294 c 0xe0
 750 205 675 129 585 129 c 0
 549 129 514 141 485 163 c 1
 510 0 l 1
 330 0 l 1
 355 163 l 1
 326 141 291 129 255 129 c 0xd0
EndSplineSet
EndChar

StartChar: uni2720
Encoding: 187 10016 187
Width: 930
Flags: W
HStem: 238 74<391 428 502 539>
VStem: 428 74<201 238 312 349>
LayerCount: 2
Back
Fore
SplineSet
653 650 m 1
 502 349 l 1
 502 312 l 1
 539 312 l 1
 840 463 l 1
 840 87 l 1
 539 238 l 1
 502 238 l 1
 502 201 l 1
 653 -100 l 1
 278 -100 l 1
 428 201 l 1
 428 238 l 1
 391 238 l 1
 90 87 l 1
 90 463 l 1
 391 312 l 1
 428 312 l 1
 428 349 l 1
 278 650 l 1
 653 650 l 1
EndSplineSet
EndChar

StartChar: uni2721
Encoding: 188 10017 188
Width: 930
Flags: W
HStem: 59 59<193 306 408 522 624 737> 432 59<193 306 408 522 624 737> 688 20G<453.479 476.521>
LayerCount: 2
Back
Fore
SplineSet
306 118 m 1
 249 216 l 1
 193 118 l 1
 306 118 l 1
681 216 m 1
 624 118 l 1
 737 118 l 1
 681 216 l 1
522 491 m 1
 465 590 l 1
 408 491 l 1
 522 491 l 1
647 275 m 1
 556 432 l 1
 374 432 l 1
 283 275 l 1
 374 118 l 1
 556 118 l 1
 647 275 l 1
681 334 m 1
 737 432 l 1
 624 432 l 1
 681 334 l 1
306 432 m 1
 193 432 l 1
 249 334 l 1
 306 432 l 1
465 -158 m 1
 340 59 l 1
 90 59 l 1
 215 275 l 1
 90 491 l 1
 340 491 l 1
 465 708 l 1
 590 491 l 1
 840 491 l 1
 715 275 l 1
 840 59 l 1
 590 59 l 1
 465 -158 l 1
465 -40 m 1
 522 59 l 1
 408 59 l 1
 465 -40 l 1
EndSplineSet
EndChar

StartChar: uni2314
Encoding: 189 8980 189
Width: 720
Flags: W
HStem: 468 74<240.007 479.993>
LayerCount: 2
Back
Fore
SplineSet
526 426 m 1
 474 454 417 468 360 468 c 0
 303 468 246 454 194 426 c 1
 360 120 l 1
 526 426 l 1
561 491 m 2
 626 456 l 1
 382 5 l 1
 338 5 l 1
 94 456 l 1
 159 491 l 2
 221 525 291 542 360 542 c 0
 429 542 499 525 561 491 c 2
EndSplineSet
EndChar

StartChar: universal
Encoding: 190 8704 190
Width: 780
Flags: W
HStem: 0 21G<316.465 463.535> 387 74<285 495> 687 20G<92 186.504 593.496 688>
LayerCount: 2
Back
Fore
SplineSet
495 387 m 1
 285 387 l 1
 390 64 l 1
 495 387 l 1
92 707 m 1
 180 707 l 1
 260 461 l 1
 520 461 l 1
 600 707 l 1
 688 707 l 1
 457 0 l 1
 323 0 l 1
 92 707 l 1
EndSplineSet
EndChar

StartChar: existential
Encoding: 191 8707 191
Width: 660
Flags: W
HStem: 0 74<90 478> 317 74<144 478> 633 74<90 478>
VStem: 478 92<74 317 391 633>
LayerCount: 2
Back
Fore
SplineSet
90 0 m 1
 90 74 l 1
 478 74 l 1
 478 317 l 1
 144 317 l 1
 144 391 l 1
 478 391 l 1
 478 633 l 1
 90 633 l 1
 90 707 l 1
 250 707 410 707 570 707 c 1
 570 0 l 1
 410 0 250 0 90 0 c 1
EndSplineSet
EndChar

StartChar: uni2204
Encoding: 192 8708 192
Width: 660
Flags: W
HStem: 0 74<90 178 266 478> 317 74<144 263 351 478> 633 74<90 348 436 478>
VStem: 478 92<74 317 391 633>
LayerCount: 2
Back
Fore
SplineSet
351 391 m 1
 478 391 l 1
 478 633 l 1
 416 633 l 1
 351 391 l 1
266 74 m 1
 478 74 l 1
 478 317 l 1
 331 317 l 1
 266 74 l 1
404 843 m 1
 468 826 l 1
 436 707 l 1
 481 707 525 707 570 707 c 1
 570 0 l 1
 462 0 354 0 246 0 c 1
 210 -136 l 1
 146 -119 l 1
 178 0 l 1
 90 0 l 1
 90 74 l 1
 198 74 l 1
 263 317 l 1
 144 317 l 1
 144 391 l 1
 283 391 l 1
 348 633 l 1
 90 633 l 1
 90 707 l 1
 368 707 l 1
 404 843 l 1
EndSplineSet
EndChar

StartChar: uni2132
Encoding: 193 8498 193
Width: 660
Flags: W
HStem: 0 74<90 478> 317 74<144 478> 687 20G<478 570>
VStem: 478 92<74 317 391 707>
LayerCount: 2
Back
Fore
SplineSet
90 0 m 1
 90 74 l 1
 478 74 l 1
 478 317 l 1
 144 317 l 1
 144 391 l 1
 478 391 l 1
 478 707 l 1
 570 707 l 1
 570 471 570 236 570 0 c 1
 410 0 250 0 90 0 c 1
EndSplineSet
EndChar

StartChar: uni2141
Encoding: 194 8513 194
Width: 780
Flags: W
HStem: -9 92<221.503 431.465> 262 74<183 330> 551 21G<129.053 168.5> 615 92<215.723 428.641>
VStem: 90 93<112.9 262> 598 92<251.795 453.446>
LayerCount: 2
Back
Fore
SplineSet
598 354 m 0
 598 498 473 615 322 615 c 0
 257 615 194 592 143 551 c 1
 90 627 l 1
 155 678 235 707 318 707 c 0
 523 707 690 551 690 354 c 0
 690 154 529 -9 330 -9 c 0
 242 -9 157 22 90 80 c 1
 90 336 l 1
 330 336 l 1
 330 262 l 1
 183 262 l 1
 183 125 l 1
 227 97 278 83 330 83 c 0
 478 83 598 205 598 354 c 0
EndSplineSet
EndChar

StartChar: uni2201
Encoding: 195 8705 195
Width: 600
Flags: W
HStem: 0 93<232.052 370.541> 615 92<232.052 368.128>
VStem: 90 93<139.953 567.047> 418 92<139.953 200 507 567.047>
LayerCount: 2
Back
Fore
SplineSet
510 507 m 1
 418 507 l 1
 418 568 363 615 300 615 c 0
 237 615 183 568 183 507 c 2
 183 200 l 2
 183 139 237 93 300 93 c 0
 363 93 418 139 418 200 c 1
 510 200 l 1
 510 88 414 0 300 0 c 0
 186 0 90 88 90 200 c 2
 90 507 l 2
 90 619 186 707 300 707 c 0
 414 707 510 619 510 507 c 1
EndSplineSet
EndChar

StartChar: uni266D
Encoding: 196 9837 196
Width: 554
Flags: W
HStem: 472 74<216.683 328.335> 734 20G<90 164>
VStem: 90 74<105 421.894 502 754> 365 99<280.82 432.165>
LayerCount: 2
Back
Fore
SplineSet
164 398 m 1
 164 105 l 1
 259 172 365 244 365 358 c 0
 365 417 331 472 277 472 c 0
 230 472 195 435 164 398 c 1
90 754 m 1
 164 754 l 1
 164 502 l 1
 197 528 235 546 277 546 c 0
 380 546 464 462 464 358 c 0
 464 225 251 76 90 -37 c 1
 90 754 l 1
EndSplineSet
EndChar

StartChar: uni266E
Encoding: 197 9838 197
Width: 554
Flags: W
HStem: -220 21G<390 464> 0 21G<90 165> 526 20G<389 464> 734 20G<90 164>
VStem: 90 74<131 355 466 754> 390 74<-220 80 191 415>
LayerCount: 2
Back
Fore
SplineSet
390 80 m 1
 90 0 l 1
 90 754 l 1
 164 754 l 1
 164 466 l 1
 464 546 l 1
 464 -220 l 1
 390 -220 l 1
 390 80 l 1
390 191 m 1
 390 415 l 1
 164 355 l 1
 164 131 l 1
 390 191 l 1
EndSplineSet
EndChar

StartChar: uni266F
Encoding: 198 9839 198
Width: 554
Flags: W
HStem: -220 21G<147 221> 0 21G<90 147> 526 20G<408 464> 734 20G<334 408>
VStem: 147 74<-220 15 146 350 481 686> 334 74<-152 65 196 400 531 754>
LayerCount: 2
Back
Fore
SplineSet
334 176 m 1
 334 400 l 1
 221 370 l 1
 221 146 l 1
 334 176 l 1
408 -152 m 1
 334 -152 l 1
 334 65 l 1
 221 35 l 1
 221 -220 l 1
 147 -220 l 1
 147 15 l 1
 90 0 l 1
 90 111 l 1
 147 126 l 1
 147 350 l 1
 90 335 l 1
 90 446 l 1
 147 461 l 1
 147 686 l 1
 221 686 l 1
 221 481 l 1
 334 511 l 1
 334 754 l 1
 408 754 l 1
 408 531 l 1
 464 546 l 1
 464 435 l 1
 408 420 l 1
 408 196 l 1
 464 211 l 1
 464 100 l 1
 408 85 l 1
 408 -152 l 1
EndSplineSet
EndChar

StartChar: aleph
Encoding: 199 8501 199
Width: 794
Flags: W
HStem: 0 21G<90 201> 689 20G<605 704>
VStem: 90 111<0 225.495> 605 99<546.496 705>
LayerCount: 2
Back
Fore
SplineSet
201 0 m 1
 90 0 l 1
 90 169 120 342 217 479 c 1
 164 542 119 610 90 688 c 1
 194 726 l 1
 250 574 366 460 477 342 c 1
 561 443 605 572 605 705 c 1
 704 709 l 1
 704 548 645 393 540 273 c 1
 608 196 669 114 704 17 c 1
 611 -17 l 1
 549 154 406 275 281 407 c 1
 209 290 201 141 201 0 c 1
EndSplineSet
EndChar

StartChar: uni2136
Encoding: 200 8502 200
Width: 794
Flags: W
HStem: 0 107<104 535 627 690> 600 107<164 493.695>
VStem: 535 92<107 557.021>
LayerCount: 2
Back
Fore
SplineSet
164 707 m 1
 397 707 l 2
 568 707 627 644 627 471 c 2
 627 107 l 1
 718 107 l 1
 690 0 l 1
 76 0 l 1
 104 107 l 1
 535 107 l 1
 535 471 l 2
 535 568 496 600 397 600 c 2
 136 600 l 1
 164 707 l 1
EndSplineSet
EndChar

StartChar: uni2137
Encoding: 201 8503 201
Width: 614
Flags: W
HStem: 0 97<99 211.4>
LayerCount: 2
Back
Fore
SplineSet
99 97 m 1
 144 97 l 2
 191 97 214 112 232 143 c 2
 349 345 l 1
 344 387 339 429 333 471 c 0
 328 510 312 548 279 567 c 2
 171 629 l 1
 226 726 l 1
 335 663 l 2
 399 626 415 546 426 471 c 0
 448 312 461 149 524 0 c 1
 425 0 l 1
 394 72 377 148 365 225 c 1
 296 106 l 2
 262 48 232 0 144 0 c 2
 81 0 l 1
 99 97 l 1
EndSplineSet
EndChar

StartChar: uni2138
Encoding: 202 8504 202
Width: 734
Flags: W
HStem: 0 21G<441 533> 600 107<104 441 533 630>
VStem: 441 92<0 600>
LayerCount: 2
Back
Fore
SplineSet
104 707 m 1
 658 707 l 1
 630 600 l 1
 533 600 l 1
 533 0 l 1
 441 0 l 1
 441 600 l 1
 76 600 l 1
 104 707 l 1
EndSplineSet
EndChar

StartChar: weierstrass
Encoding: 203 8472 203
Width: 688
Flags: W
HStem: -220 74<78.1329 144.285> 0 74<326.039 452.587> 445 74<367.772 522.511> 526 20G<170.5 195.188>
VStem: -8 73<-134.128 52.2863> 160 97<-124.013 -1.10968> 538 100<245.996 427.884>
LayerCount: 2
Back
Fore
SplineSet
90 63 m 1
 78 24 65 -24 65 -70 c 0
 65 -113 79 -146 119 -146 c 0
 128 -146 136 -138 141 -129 c 0
 153 -112 160 -95 160 -71 c 0
 160 -59 157 -47 154 -36 c 0
 142 3 115 33 90 63 c 1
538 380 m 0
 538 422 507 445 469 445 c 0
 326 445 209 330 137 183 c 1
 160 126 210 90 238 35 c 0
 250 12 257 -14 257 -42 c 0
 257 -52 256 -63 254 -73 c 0
 240 -139 180 -220 103 -220 c 0
 26 -220 -8 -154 -8 -72 c 0
 -8 -49 -5 -24 0 0 c 0
 10 47 24 94 42 139 c 1
 32 167 27 197 27 228 c 0
 27 258 31 289 38 320 c 0
 50 375 69 430 102 480 c 0
 124 513 153 546 188 546 c 1
 211 482 l 1
 192 482 180 458 169 438 c 0
 146 394 134 350 127 298 c 1
 217 428 342 519 484 519 c 0
 582 519 638 431 638 330 c 0
 638 307 635 283 630 259 c 0
 616 193 584 128 532 76 c 0
 488 31 431 0 374 0 c 0
 349 0 325 5 304 13 c 1
 332 86 l 1
 350 78 369 74 390 74 c 0
 422 74 456 91 476 120 c 0
 495 147 509 212 519 259 c 0
 527 298 538 348 538 380 c 0
EndSplineSet
EndChar
